M48
; DRILL file {KiCad 9.0.3} date 2026-02-23T18:49:31+1100
; FORMAT={-:-/ absolute / metric / decimal}
; #@! TF.CreationDate,2026-02-23T18:49:31+11:00
; #@! TF.GenerationSoftware,Kicad,Pcbnew,9.0.3
; #@! TF.FileFunction,Plated,1,6,PTH
FMAT,2
METRIC
; #@! TA.AperFunction,Plated,PTH,ViaDrill
T1C0.300
; #@! TA.AperFunction,Plated,PTH,ComponentDrill
T2C0.500
; #@! TA.AperFunction,Plated,PTH,ComponentDrill
T3C0.508
; #@! TA.AperFunction,Plated,PTH,ComponentDrill
T4C1.000
%
G90
G05
T1
X148.0Y-85.7
X148.0Y-98.9
X148.1Y-64.9
X148.1Y-93.725
X148.1Y-148.3
X148.2Y-61.9
X148.2Y-141.4
X148.2Y-149.4
X148.248Y-135.85
X148.334Y-96.966
X148.4Y-91.2
X148.4Y-146.0
X148.4Y-147.1
X148.5Y-131.5
X148.52Y-138.169
X148.7Y-89.7
X148.7Y-125.1
X148.826Y-119.674
X148.9Y-88.9
X149.0Y-62.8
X149.1Y-70.8
X149.1Y-128.5
X149.384Y-102.458
X149.4Y-61.5
X149.4Y-139.6
X149.5Y-104.8
X149.5Y-115.9
X149.7Y-96.4
X149.9Y-138.15
X150.1Y-102.1
X150.1Y-106.6
X150.174Y-93.7
X150.2Y-88.7
X150.2Y-91.1
X150.2Y-98.9
X150.224Y-107.524
X150.225Y-105.81
X150.3Y-70.0
X150.4Y-72.1
X150.5Y-62.8
X150.5Y-117.772
X150.6Y-68.7
X150.6Y-101.0
X150.6Y-109.4
X150.6Y-110.4
X150.6Y-111.6
X150.6Y-112.4
X150.7Y-62.0
X150.7Y-74.6
X150.7Y-75.8
X150.8Y-136.4
X151.0Y-77.1
X151.0Y-113.2
X151.1Y-67.6
X151.1Y-79.6
X151.3Y-86.4
X151.3Y-108.3
X151.3Y-149.5
X151.374Y-94.0
X151.5Y-148.2
X151.6Y-77.9
X151.7Y-69.4
X151.7Y-145.4
X151.8Y-123.7
X151.8Y-71.9
X151.8Y-109.7
X151.9Y-107.415
X152.1Y-83.1
X152.1Y-108.3
X152.1Y-112.3
X152.1Y-141.5
X152.1Y-147.8
X152.2Y-111.1
X152.2Y-116.7
X152.3Y-61.7
X152.4Y-67.2
X152.6Y-96.8
X152.6Y-105.1
X152.7Y-68.4
X152.7Y-100.5
X152.763Y-99.008
X152.785Y-102.017
X152.8Y-62.5
X152.8Y-86.7
X152.9Y-128.1
X153.0Y-69.4
X153.1Y-121.7
X153.123Y-136.856
X153.2Y-147.5
X153.308Y-140.292
X153.316Y-97.158
X153.4Y-88.1
X153.424Y-105.076
X153.5Y-106.2
X153.6Y-125.1
X153.6Y-148.4
X153.7Y-61.5
X153.7Y-131.7
X153.8Y-67.1
X153.8Y-149.5
X153.94Y-68.241
X154.1Y-111.2
X154.1Y-112.3
X154.1Y-125.9
X154.1Y-135.2
X154.25Y-65.7
X154.3Y-133.8
X154.5Y-145.001
X154.5Y-127.1
X154.5Y-128.9
X154.55Y-141.475
X154.6Y-121.3
X154.7Y-62.1
X154.7Y-125.2
X154.768Y-108.584
X154.9Y-148.1
X155.0Y-118.6
X155.1Y-66.8
X155.1Y-87.1
X155.125Y-145.5
X155.3Y-68.7
X155.3Y-109.9
X155.3Y-116.1
X155.328Y-90.826
X155.4Y-106.6
X155.4Y-147.4
X155.406Y-109.158
X155.516Y-100.3
X155.517Y-98.237
X155.6Y-134.3
X155.6Y-138.5
X155.7Y-112.3
X155.724Y-104.576
X155.785Y-108.51
X155.8Y-101.599
X155.8Y-141.4
X155.9Y-97.5
X155.9Y-139.6
X155.9Y-140.5
X155.9Y-149.5
X156.2Y-65.6
X156.2Y-67.7
X156.2Y-123.3
X156.2Y-147.9
X156.3Y-98.4
X156.5Y-113.2
X156.547Y-92.737
X156.6Y-69.3
X156.6Y-121.9
X156.7Y-140.0
X156.781Y-96.619
X156.8Y-89.5
X156.8Y-134.2
X156.9Y-104.8
X157.0Y-90.6
X157.0Y-109.3
X157.0Y-132.9
X157.1Y-129.2
X157.1Y-138.7
X157.124Y-95.102
X157.2Y-65.8
X157.2Y-92.275
X157.2Y-141.1
X157.2Y-145.2
X157.249Y-93.996
X157.3Y-121.0
X157.3Y-122.5
X157.4Y-113.31
X157.451Y-106.351
X157.5Y-67.5
X157.507Y-108.039
X157.578Y-118.101
X157.6Y-75.4
X157.6Y-115.8
X157.7Y-123.4
X157.7Y-124.1
X157.999Y-106.978
X158.044Y-100.456
X158.1Y-98.9
X158.1Y-149.5
X158.2Y-107.753
X158.2Y-121.7
X158.258Y-109.065
X158.3Y-69.1
X158.3Y-122.6
X158.4Y-141.7
X158.576Y-96.276
X158.6Y-93.7
X158.604Y-111.301
X158.677Y-91.172
X158.7Y-66.3
X158.8Y-118.0
X158.8Y-137.4
X158.851Y-99.0
X159.0Y-78.2
X159.1Y-80.5
X159.2Y-113.5
X159.3Y-85.8
X159.5Y-84.6
X159.6Y-68.6
X159.7Y-144.0
X159.7Y-149.4
X159.712Y-114.115
X159.8Y-79.3
X159.9Y-80.6
X159.9Y-83.1
X160.0Y-65.1
X160.1Y-77.9
X160.2Y-67.3
X160.2Y-97.0
X160.2Y-115.3
X160.274Y-116.526
X160.3Y-63.6
X160.3Y-148.0
X160.3Y-148.7
X160.351Y-113.57
X160.4Y-70.6
X160.432Y-61.55
X160.5Y-118.7
X160.5Y-141.3
X160.6Y-130.4
X160.6Y-137.9
X160.7Y-84.3
X160.7Y-90.7
X160.7Y-93.749
X160.7Y-98.7
X160.7Y-101.9
T2
X148.0Y-143.5
X148.0Y-144.5
T4
X149.1Y-73.5
X149.1Y-76.04
X149.1Y-78.58
X149.1Y-81.12
X150.42Y-84.7
X152.96Y-80.95
X152.96Y-84.7
X155.5Y-80.95
X155.5Y-84.7
X158.04Y-84.7
X159.75Y-125.925
X159.75Y-128.465
T3
G00X149.76Y-148.107
M15
G01X149.76Y-147.523
M16
G05
G00X150.12Y-144.657
M15
G01X150.12Y-144.073
M16
G05
G00X158.38Y-144.657
M15
G01X158.38Y-144.073
M16
G05
G00X158.74Y-148.107
M15
G01X158.74Y-147.523
M16
G05
M30
