%TF.GenerationSoftware,KiCad,Pcbnew,9.0.3*%
%TF.CreationDate,2026-02-23T18:49:33+11:00*%
%TF.ProjectId,new-stm32u3-203f,6e65772d-7374-46d3-9332-75332d323033,rev?*%
%TF.SameCoordinates,Original*%
%TF.FileFunction,Paste,Top*%
%TF.FilePolarity,Positive*%
%FSLAX46Y46*%
G04 Gerber Fmt 4.6, Leading zero omitted, Abs format (unit mm)*
G04 Created by KiCad (PCBNEW 9.0.3) date 2026-02-23 18:49:33*
%MOMM*%
%LPD*%
G01*
G04 APERTURE LIST*
G04 Aperture macros list*
%AMRoundRect*
0 Rectangle with rounded corners*
0 $1 Rounding radius*
0 $2 $3 $4 $5 $6 $7 $8 $9 X,Y pos of 4 corners*
0 Add a 4 corners polygon primitive as box body*
4,1,4,$2,$3,$4,$5,$6,$7,$8,$9,$2,$3,0*
0 Add four circle primitives for the rounded corners*
1,1,$1+$1,$2,$3*
1,1,$1+$1,$4,$5*
1,1,$1+$1,$6,$7*
1,1,$1+$1,$8,$9*
0 Add four rect primitives between the rounded corners*
20,1,$1+$1,$2,$3,$4,$5,0*
20,1,$1+$1,$4,$5,$6,$7,0*
20,1,$1+$1,$6,$7,$8,$9,0*
20,1,$1+$1,$8,$9,$2,$3,0*%
G04 Aperture macros list end*
%ADD10RoundRect,0.225000X0.225000X0.250000X-0.225000X0.250000X-0.225000X-0.250000X0.225000X-0.250000X0*%
%ADD11RoundRect,0.200000X-0.275000X0.200000X-0.275000X-0.200000X0.275000X-0.200000X0.275000X0.200000X0*%
%ADD12RoundRect,0.200000X0.200000X0.275000X-0.200000X0.275000X-0.200000X-0.275000X0.200000X-0.275000X0*%
%ADD13RoundRect,0.225000X-0.250000X0.225000X-0.250000X-0.225000X0.250000X-0.225000X0.250000X0.225000X0*%
%ADD14R,1.800000X1.000000*%
%ADD15R,0.609600X1.244600*%
%ADD16R,1.193800X3.784600*%
%ADD17R,1.447800X1.400000*%
%ADD18R,0.990600X0.609600*%
%ADD19R,0.939800X0.838200*%
%ADD20RoundRect,0.200000X-0.200000X-0.275000X0.200000X-0.275000X0.200000X0.275000X-0.200000X0.275000X0*%
%ADD21RoundRect,0.200000X0.275000X-0.200000X0.275000X0.200000X-0.275000X0.200000X-0.275000X-0.200000X0*%
%ADD22R,1.000000X1.600000*%
%ADD23RoundRect,0.225000X-0.225000X-0.250000X0.225000X-0.250000X0.225000X0.250000X-0.225000X0.250000X0*%
%ADD24RoundRect,0.225000X0.250000X-0.225000X0.250000X0.225000X-0.250000X0.225000X-0.250000X-0.225000X0*%
G04 APERTURE END LIST*
D10*
%TO.C,C1*%
X160275000Y-112250000D03*
X158725000Y-112250000D03*
%TD*%
D11*
%TO.C,R13*%
X148200000Y-86475000D03*
X148200000Y-88125000D03*
%TD*%
D12*
%TO.C,R1*%
X155055000Y-78200000D03*
X153405000Y-78200000D03*
%TD*%
D13*
%TO.C,C10*%
X160300000Y-107325000D03*
X160300000Y-108875000D03*
%TD*%
D12*
%TO.C,R2*%
X155025000Y-89100000D03*
X153375000Y-89100000D03*
%TD*%
D10*
%TO.C,C2*%
X160275000Y-110500000D03*
X158725000Y-110500000D03*
%TD*%
D14*
%TO.C,X1*%
X159800000Y-105850000D03*
X159800000Y-103350000D03*
%TD*%
D15*
%TO.C,J5*%
X158166618Y-119700000D03*
X157066617Y-119700000D03*
X155966617Y-119700000D03*
X154866616Y-119700000D03*
X153766619Y-119700000D03*
X152666618Y-119700000D03*
X151566618Y-119700000D03*
X150466618Y-119700000D03*
D16*
X149011195Y-122180307D03*
D17*
X159495006Y-121428005D03*
D18*
X159723606Y-122682806D03*
D19*
X158771106Y-123670700D03*
%TD*%
D20*
%TO.C,R14*%
X158675000Y-76700000D03*
X160325000Y-76700000D03*
%TD*%
D11*
%TO.C,R17*%
X148000000Y-94475000D03*
X148000000Y-96125000D03*
%TD*%
D21*
%TO.C,R15*%
X160300000Y-88425000D03*
X160300000Y-86775000D03*
%TD*%
D22*
%TO.C,SW1*%
X155800000Y-73800000D03*
X154050000Y-76100000D03*
X152300000Y-73800000D03*
%TD*%
D10*
%TO.C,C8*%
X157025000Y-117200000D03*
X155475000Y-117200000D03*
%TD*%
D23*
%TO.C,C11*%
X158625000Y-101800000D03*
X160175000Y-101800000D03*
%TD*%
D12*
%TO.C,R19*%
X155075000Y-91800000D03*
X153425000Y-91800000D03*
%TD*%
D21*
%TO.C,R16*%
X160500000Y-96100000D03*
X160500000Y-94450000D03*
%TD*%
D24*
%TO.C,C9*%
X157100000Y-112225000D03*
X157100000Y-110675000D03*
%TD*%
M02*
