%TF.GenerationSoftware,KiCad,Pcbnew,9.0.3*%
%TF.CreationDate,2026-02-23T18:49:33+11:00*%
%TF.ProjectId,new-stm32u3-203f,6e65772d-7374-46d3-9332-75332d323033,rev?*%
%TF.SameCoordinates,Original*%
%TF.FileFunction,Legend,Bot*%
%TF.FilePolarity,Positive*%
%FSLAX46Y46*%
G04 Gerber Fmt 4.6, Leading zero omitted, Abs format (unit mm)*
G04 Created by KiCad (PCBNEW 9.0.3) date 2026-02-23 18:49:33*
%MOMM*%
%LPD*%
G01*
G04 APERTURE LIST*
%ADD10C,0.100000*%
%ADD11C,0.150000*%
%ADD12C,0.125000*%
%ADD13C,0.508000*%
%ADD14C,0.120000*%
%ADD15C,0.200000*%
%ADD16C,0.000000*%
%ADD17C,0.152400*%
G04 APERTURE END LIST*
D10*
X147500000Y-128475000D02*
X148000000Y-127975000D01*
X148000000Y-127975000D02*
X148500000Y-128475000D01*
X147750000Y-127975000D02*
X147500000Y-127975000D01*
X147500000Y-127975000D02*
X148500000Y-127975000D01*
X148500000Y-128475000D02*
X147500000Y-128475000D01*
X148500000Y-128475000D02*
X147500000Y-128475000D01*
X148000000Y-127975000D01*
X148500000Y-128475000D01*
G36*
X148500000Y-128475000D02*
G01*
X147500000Y-128475000D01*
X148000000Y-127975000D01*
X148500000Y-128475000D01*
G37*
D11*
X153211904Y-127542319D02*
X153211904Y-128351842D01*
X153211904Y-128351842D02*
X153164285Y-128447080D01*
X153164285Y-128447080D02*
X153116666Y-128494700D01*
X153116666Y-128494700D02*
X153021428Y-128542319D01*
X153021428Y-128542319D02*
X152830952Y-128542319D01*
X152830952Y-128542319D02*
X152735714Y-128494700D01*
X152735714Y-128494700D02*
X152688095Y-128447080D01*
X152688095Y-128447080D02*
X152640476Y-128351842D01*
X152640476Y-128351842D02*
X152640476Y-127542319D01*
X151735714Y-127542319D02*
X151926190Y-127542319D01*
X151926190Y-127542319D02*
X152021428Y-127589938D01*
X152021428Y-127589938D02*
X152069047Y-127637557D01*
X152069047Y-127637557D02*
X152164285Y-127780414D01*
X152164285Y-127780414D02*
X152211904Y-127970890D01*
X152211904Y-127970890D02*
X152211904Y-128351842D01*
X152211904Y-128351842D02*
X152164285Y-128447080D01*
X152164285Y-128447080D02*
X152116666Y-128494700D01*
X152116666Y-128494700D02*
X152021428Y-128542319D01*
X152021428Y-128542319D02*
X151830952Y-128542319D01*
X151830952Y-128542319D02*
X151735714Y-128494700D01*
X151735714Y-128494700D02*
X151688095Y-128447080D01*
X151688095Y-128447080D02*
X151640476Y-128351842D01*
X151640476Y-128351842D02*
X151640476Y-128113747D01*
X151640476Y-128113747D02*
X151688095Y-128018509D01*
X151688095Y-128018509D02*
X151735714Y-127970890D01*
X151735714Y-127970890D02*
X151830952Y-127923271D01*
X151830952Y-127923271D02*
X152021428Y-127923271D01*
X152021428Y-127923271D02*
X152116666Y-127970890D01*
X152116666Y-127970890D02*
X152164285Y-128018509D01*
X152164285Y-128018509D02*
X152211904Y-128113747D01*
X159083333Y-123904819D02*
X159083333Y-124619104D01*
X159083333Y-124619104D02*
X159130952Y-124761961D01*
X159130952Y-124761961D02*
X159226190Y-124857200D01*
X159226190Y-124857200D02*
X159369047Y-124904819D01*
X159369047Y-124904819D02*
X159464285Y-124904819D01*
X158178571Y-124238152D02*
X158178571Y-124904819D01*
X158416666Y-123857200D02*
X158654761Y-124571485D01*
X158654761Y-124571485D02*
X158035714Y-124571485D01*
D12*
X159596428Y-132387190D02*
X159620237Y-132411000D01*
X159620237Y-132411000D02*
X159691666Y-132434809D01*
X159691666Y-132434809D02*
X159739285Y-132434809D01*
X159739285Y-132434809D02*
X159810713Y-132411000D01*
X159810713Y-132411000D02*
X159858332Y-132363380D01*
X159858332Y-132363380D02*
X159882142Y-132315761D01*
X159882142Y-132315761D02*
X159905951Y-132220523D01*
X159905951Y-132220523D02*
X159905951Y-132149095D01*
X159905951Y-132149095D02*
X159882142Y-132053857D01*
X159882142Y-132053857D02*
X159858332Y-132006238D01*
X159858332Y-132006238D02*
X159810713Y-131958619D01*
X159810713Y-131958619D02*
X159739285Y-131934809D01*
X159739285Y-131934809D02*
X159691666Y-131934809D01*
X159691666Y-131934809D02*
X159620237Y-131958619D01*
X159620237Y-131958619D02*
X159596428Y-131982428D01*
X159405951Y-131982428D02*
X159382142Y-131958619D01*
X159382142Y-131958619D02*
X159334523Y-131934809D01*
X159334523Y-131934809D02*
X159215475Y-131934809D01*
X159215475Y-131934809D02*
X159167856Y-131958619D01*
X159167856Y-131958619D02*
X159144047Y-131982428D01*
X159144047Y-131982428D02*
X159120237Y-132030047D01*
X159120237Y-132030047D02*
X159120237Y-132077666D01*
X159120237Y-132077666D02*
X159144047Y-132149095D01*
X159144047Y-132149095D02*
X159429761Y-132434809D01*
X159429761Y-132434809D02*
X159120237Y-132434809D01*
X158882142Y-132434809D02*
X158786904Y-132434809D01*
X158786904Y-132434809D02*
X158739285Y-132411000D01*
X158739285Y-132411000D02*
X158715476Y-132387190D01*
X158715476Y-132387190D02*
X158667857Y-132315761D01*
X158667857Y-132315761D02*
X158644047Y-132220523D01*
X158644047Y-132220523D02*
X158644047Y-132030047D01*
X158644047Y-132030047D02*
X158667857Y-131982428D01*
X158667857Y-131982428D02*
X158691666Y-131958619D01*
X158691666Y-131958619D02*
X158739285Y-131934809D01*
X158739285Y-131934809D02*
X158834523Y-131934809D01*
X158834523Y-131934809D02*
X158882142Y-131958619D01*
X158882142Y-131958619D02*
X158905952Y-131982428D01*
X158905952Y-131982428D02*
X158929761Y-132030047D01*
X158929761Y-132030047D02*
X158929761Y-132149095D01*
X158929761Y-132149095D02*
X158905952Y-132196714D01*
X158905952Y-132196714D02*
X158882142Y-132220523D01*
X158882142Y-132220523D02*
X158834523Y-132244333D01*
X158834523Y-132244333D02*
X158739285Y-132244333D01*
X158739285Y-132244333D02*
X158691666Y-132220523D01*
X158691666Y-132220523D02*
X158667857Y-132196714D01*
X158667857Y-132196714D02*
X158644047Y-132149095D01*
X150974809Y-132866666D02*
X150736714Y-132700000D01*
X150974809Y-132580952D02*
X150474809Y-132580952D01*
X150474809Y-132580952D02*
X150474809Y-132771428D01*
X150474809Y-132771428D02*
X150498619Y-132819047D01*
X150498619Y-132819047D02*
X150522428Y-132842857D01*
X150522428Y-132842857D02*
X150570047Y-132866666D01*
X150570047Y-132866666D02*
X150641476Y-132866666D01*
X150641476Y-132866666D02*
X150689095Y-132842857D01*
X150689095Y-132842857D02*
X150712904Y-132819047D01*
X150712904Y-132819047D02*
X150736714Y-132771428D01*
X150736714Y-132771428D02*
X150736714Y-132580952D01*
X150474809Y-133295238D02*
X150474809Y-133200000D01*
X150474809Y-133200000D02*
X150498619Y-133152381D01*
X150498619Y-133152381D02*
X150522428Y-133128571D01*
X150522428Y-133128571D02*
X150593857Y-133080952D01*
X150593857Y-133080952D02*
X150689095Y-133057143D01*
X150689095Y-133057143D02*
X150879571Y-133057143D01*
X150879571Y-133057143D02*
X150927190Y-133080952D01*
X150927190Y-133080952D02*
X150951000Y-133104762D01*
X150951000Y-133104762D02*
X150974809Y-133152381D01*
X150974809Y-133152381D02*
X150974809Y-133247619D01*
X150974809Y-133247619D02*
X150951000Y-133295238D01*
X150951000Y-133295238D02*
X150927190Y-133319047D01*
X150927190Y-133319047D02*
X150879571Y-133342857D01*
X150879571Y-133342857D02*
X150760523Y-133342857D01*
X150760523Y-133342857D02*
X150712904Y-133319047D01*
X150712904Y-133319047D02*
X150689095Y-133295238D01*
X150689095Y-133295238D02*
X150665285Y-133247619D01*
X150665285Y-133247619D02*
X150665285Y-133152381D01*
X150665285Y-133152381D02*
X150689095Y-133104762D01*
X150689095Y-133104762D02*
X150712904Y-133080952D01*
X150712904Y-133080952D02*
X150760523Y-133057143D01*
X147677190Y-103116666D02*
X147701000Y-103092857D01*
X147701000Y-103092857D02*
X147724809Y-103021428D01*
X147724809Y-103021428D02*
X147724809Y-102973809D01*
X147724809Y-102973809D02*
X147701000Y-102902381D01*
X147701000Y-102902381D02*
X147653380Y-102854762D01*
X147653380Y-102854762D02*
X147605761Y-102830952D01*
X147605761Y-102830952D02*
X147510523Y-102807143D01*
X147510523Y-102807143D02*
X147439095Y-102807143D01*
X147439095Y-102807143D02*
X147343857Y-102830952D01*
X147343857Y-102830952D02*
X147296238Y-102854762D01*
X147296238Y-102854762D02*
X147248619Y-102902381D01*
X147248619Y-102902381D02*
X147224809Y-102973809D01*
X147224809Y-102973809D02*
X147224809Y-103021428D01*
X147224809Y-103021428D02*
X147248619Y-103092857D01*
X147248619Y-103092857D02*
X147272428Y-103116666D01*
X147224809Y-103283333D02*
X147224809Y-103616666D01*
X147224809Y-103616666D02*
X147724809Y-103402381D01*
X149221428Y-126277190D02*
X149245237Y-126301000D01*
X149245237Y-126301000D02*
X149316666Y-126324809D01*
X149316666Y-126324809D02*
X149364285Y-126324809D01*
X149364285Y-126324809D02*
X149435713Y-126301000D01*
X149435713Y-126301000D02*
X149483332Y-126253380D01*
X149483332Y-126253380D02*
X149507142Y-126205761D01*
X149507142Y-126205761D02*
X149530951Y-126110523D01*
X149530951Y-126110523D02*
X149530951Y-126039095D01*
X149530951Y-126039095D02*
X149507142Y-125943857D01*
X149507142Y-125943857D02*
X149483332Y-125896238D01*
X149483332Y-125896238D02*
X149435713Y-125848619D01*
X149435713Y-125848619D02*
X149364285Y-125824809D01*
X149364285Y-125824809D02*
X149316666Y-125824809D01*
X149316666Y-125824809D02*
X149245237Y-125848619D01*
X149245237Y-125848619D02*
X149221428Y-125872428D01*
X149054761Y-125824809D02*
X148745237Y-125824809D01*
X148745237Y-125824809D02*
X148911904Y-126015285D01*
X148911904Y-126015285D02*
X148840475Y-126015285D01*
X148840475Y-126015285D02*
X148792856Y-126039095D01*
X148792856Y-126039095D02*
X148769047Y-126062904D01*
X148769047Y-126062904D02*
X148745237Y-126110523D01*
X148745237Y-126110523D02*
X148745237Y-126229571D01*
X148745237Y-126229571D02*
X148769047Y-126277190D01*
X148769047Y-126277190D02*
X148792856Y-126301000D01*
X148792856Y-126301000D02*
X148840475Y-126324809D01*
X148840475Y-126324809D02*
X148983332Y-126324809D01*
X148983332Y-126324809D02*
X149030951Y-126301000D01*
X149030951Y-126301000D02*
X149054761Y-126277190D01*
X148292857Y-125824809D02*
X148530952Y-125824809D01*
X148530952Y-125824809D02*
X148554761Y-126062904D01*
X148554761Y-126062904D02*
X148530952Y-126039095D01*
X148530952Y-126039095D02*
X148483333Y-126015285D01*
X148483333Y-126015285D02*
X148364285Y-126015285D01*
X148364285Y-126015285D02*
X148316666Y-126039095D01*
X148316666Y-126039095D02*
X148292857Y-126062904D01*
X148292857Y-126062904D02*
X148269047Y-126110523D01*
X148269047Y-126110523D02*
X148269047Y-126229571D01*
X148269047Y-126229571D02*
X148292857Y-126277190D01*
X148292857Y-126277190D02*
X148316666Y-126301000D01*
X148316666Y-126301000D02*
X148364285Y-126324809D01*
X148364285Y-126324809D02*
X148483333Y-126324809D01*
X148483333Y-126324809D02*
X148530952Y-126301000D01*
X148530952Y-126301000D02*
X148554761Y-126277190D01*
D11*
X148333333Y-145564819D02*
X148333333Y-146279104D01*
X148333333Y-146279104D02*
X148380952Y-146421961D01*
X148380952Y-146421961D02*
X148476190Y-146517200D01*
X148476190Y-146517200D02*
X148619047Y-146564819D01*
X148619047Y-146564819D02*
X148714285Y-146564819D01*
X147952380Y-145564819D02*
X147285714Y-145564819D01*
X147285714Y-145564819D02*
X147714285Y-146564819D01*
D12*
X150130952Y-102924809D02*
X150130952Y-103329571D01*
X150130952Y-103329571D02*
X150107142Y-103377190D01*
X150107142Y-103377190D02*
X150083333Y-103401000D01*
X150083333Y-103401000D02*
X150035714Y-103424809D01*
X150035714Y-103424809D02*
X149940476Y-103424809D01*
X149940476Y-103424809D02*
X149892857Y-103401000D01*
X149892857Y-103401000D02*
X149869047Y-103377190D01*
X149869047Y-103377190D02*
X149845238Y-103329571D01*
X149845238Y-103329571D02*
X149845238Y-102924809D01*
X149345237Y-103424809D02*
X149630951Y-103424809D01*
X149488094Y-103424809D02*
X149488094Y-102924809D01*
X149488094Y-102924809D02*
X149535713Y-102996238D01*
X149535713Y-102996238D02*
X149583332Y-103043857D01*
X149583332Y-103043857D02*
X149630951Y-103067666D01*
X159596428Y-130637190D02*
X159620237Y-130661000D01*
X159620237Y-130661000D02*
X159691666Y-130684809D01*
X159691666Y-130684809D02*
X159739285Y-130684809D01*
X159739285Y-130684809D02*
X159810713Y-130661000D01*
X159810713Y-130661000D02*
X159858332Y-130613380D01*
X159858332Y-130613380D02*
X159882142Y-130565761D01*
X159882142Y-130565761D02*
X159905951Y-130470523D01*
X159905951Y-130470523D02*
X159905951Y-130399095D01*
X159905951Y-130399095D02*
X159882142Y-130303857D01*
X159882142Y-130303857D02*
X159858332Y-130256238D01*
X159858332Y-130256238D02*
X159810713Y-130208619D01*
X159810713Y-130208619D02*
X159739285Y-130184809D01*
X159739285Y-130184809D02*
X159691666Y-130184809D01*
X159691666Y-130184809D02*
X159620237Y-130208619D01*
X159620237Y-130208619D02*
X159596428Y-130232428D01*
X159405951Y-130232428D02*
X159382142Y-130208619D01*
X159382142Y-130208619D02*
X159334523Y-130184809D01*
X159334523Y-130184809D02*
X159215475Y-130184809D01*
X159215475Y-130184809D02*
X159167856Y-130208619D01*
X159167856Y-130208619D02*
X159144047Y-130232428D01*
X159144047Y-130232428D02*
X159120237Y-130280047D01*
X159120237Y-130280047D02*
X159120237Y-130327666D01*
X159120237Y-130327666D02*
X159144047Y-130399095D01*
X159144047Y-130399095D02*
X159429761Y-130684809D01*
X159429761Y-130684809D02*
X159120237Y-130684809D01*
X158834523Y-130399095D02*
X158882142Y-130375285D01*
X158882142Y-130375285D02*
X158905952Y-130351476D01*
X158905952Y-130351476D02*
X158929761Y-130303857D01*
X158929761Y-130303857D02*
X158929761Y-130280047D01*
X158929761Y-130280047D02*
X158905952Y-130232428D01*
X158905952Y-130232428D02*
X158882142Y-130208619D01*
X158882142Y-130208619D02*
X158834523Y-130184809D01*
X158834523Y-130184809D02*
X158739285Y-130184809D01*
X158739285Y-130184809D02*
X158691666Y-130208619D01*
X158691666Y-130208619D02*
X158667857Y-130232428D01*
X158667857Y-130232428D02*
X158644047Y-130280047D01*
X158644047Y-130280047D02*
X158644047Y-130303857D01*
X158644047Y-130303857D02*
X158667857Y-130351476D01*
X158667857Y-130351476D02*
X158691666Y-130375285D01*
X158691666Y-130375285D02*
X158739285Y-130399095D01*
X158739285Y-130399095D02*
X158834523Y-130399095D01*
X158834523Y-130399095D02*
X158882142Y-130422904D01*
X158882142Y-130422904D02*
X158905952Y-130446714D01*
X158905952Y-130446714D02*
X158929761Y-130494333D01*
X158929761Y-130494333D02*
X158929761Y-130589571D01*
X158929761Y-130589571D02*
X158905952Y-130637190D01*
X158905952Y-130637190D02*
X158882142Y-130661000D01*
X158882142Y-130661000D02*
X158834523Y-130684809D01*
X158834523Y-130684809D02*
X158739285Y-130684809D01*
X158739285Y-130684809D02*
X158691666Y-130661000D01*
X158691666Y-130661000D02*
X158667857Y-130637190D01*
X158667857Y-130637190D02*
X158644047Y-130589571D01*
X158644047Y-130589571D02*
X158644047Y-130494333D01*
X158644047Y-130494333D02*
X158667857Y-130446714D01*
X158667857Y-130446714D02*
X158691666Y-130422904D01*
X158691666Y-130422904D02*
X158739285Y-130399095D01*
X149603940Y-68088571D02*
X149627750Y-68064762D01*
X149627750Y-68064762D02*
X149651559Y-67993333D01*
X149651559Y-67993333D02*
X149651559Y-67945714D01*
X149651559Y-67945714D02*
X149627750Y-67874286D01*
X149627750Y-67874286D02*
X149580130Y-67826667D01*
X149580130Y-67826667D02*
X149532511Y-67802857D01*
X149532511Y-67802857D02*
X149437273Y-67779048D01*
X149437273Y-67779048D02*
X149365845Y-67779048D01*
X149365845Y-67779048D02*
X149270607Y-67802857D01*
X149270607Y-67802857D02*
X149222988Y-67826667D01*
X149222988Y-67826667D02*
X149175369Y-67874286D01*
X149175369Y-67874286D02*
X149151559Y-67945714D01*
X149151559Y-67945714D02*
X149151559Y-67993333D01*
X149151559Y-67993333D02*
X149175369Y-68064762D01*
X149175369Y-68064762D02*
X149199178Y-68088571D01*
X149651559Y-68564762D02*
X149651559Y-68279048D01*
X149651559Y-68421905D02*
X149151559Y-68421905D01*
X149151559Y-68421905D02*
X149222988Y-68374286D01*
X149222988Y-68374286D02*
X149270607Y-68326667D01*
X149270607Y-68326667D02*
X149294416Y-68279048D01*
X149199178Y-68755238D02*
X149175369Y-68779047D01*
X149175369Y-68779047D02*
X149151559Y-68826666D01*
X149151559Y-68826666D02*
X149151559Y-68945714D01*
X149151559Y-68945714D02*
X149175369Y-68993333D01*
X149175369Y-68993333D02*
X149199178Y-69017142D01*
X149199178Y-69017142D02*
X149246797Y-69040952D01*
X149246797Y-69040952D02*
X149294416Y-69040952D01*
X149294416Y-69040952D02*
X149365845Y-69017142D01*
X149365845Y-69017142D02*
X149651559Y-68731428D01*
X149651559Y-68731428D02*
X149651559Y-69040952D01*
X149187190Y-114353571D02*
X149211000Y-114329762D01*
X149211000Y-114329762D02*
X149234809Y-114258333D01*
X149234809Y-114258333D02*
X149234809Y-114210714D01*
X149234809Y-114210714D02*
X149211000Y-114139286D01*
X149211000Y-114139286D02*
X149163380Y-114091667D01*
X149163380Y-114091667D02*
X149115761Y-114067857D01*
X149115761Y-114067857D02*
X149020523Y-114044048D01*
X149020523Y-114044048D02*
X148949095Y-114044048D01*
X148949095Y-114044048D02*
X148853857Y-114067857D01*
X148853857Y-114067857D02*
X148806238Y-114091667D01*
X148806238Y-114091667D02*
X148758619Y-114139286D01*
X148758619Y-114139286D02*
X148734809Y-114210714D01*
X148734809Y-114210714D02*
X148734809Y-114258333D01*
X148734809Y-114258333D02*
X148758619Y-114329762D01*
X148758619Y-114329762D02*
X148782428Y-114353571D01*
X148782428Y-114544048D02*
X148758619Y-114567857D01*
X148758619Y-114567857D02*
X148734809Y-114615476D01*
X148734809Y-114615476D02*
X148734809Y-114734524D01*
X148734809Y-114734524D02*
X148758619Y-114782143D01*
X148758619Y-114782143D02*
X148782428Y-114805952D01*
X148782428Y-114805952D02*
X148830047Y-114829762D01*
X148830047Y-114829762D02*
X148877666Y-114829762D01*
X148877666Y-114829762D02*
X148949095Y-114805952D01*
X148949095Y-114805952D02*
X149234809Y-114520238D01*
X149234809Y-114520238D02*
X149234809Y-114829762D01*
X148901476Y-115258333D02*
X149234809Y-115258333D01*
X148711000Y-115139285D02*
X149068142Y-115020238D01*
X149068142Y-115020238D02*
X149068142Y-115329761D01*
X152880952Y-89487309D02*
X152880952Y-89892071D01*
X152880952Y-89892071D02*
X152857142Y-89939690D01*
X152857142Y-89939690D02*
X152833333Y-89963500D01*
X152833333Y-89963500D02*
X152785714Y-89987309D01*
X152785714Y-89987309D02*
X152690476Y-89987309D01*
X152690476Y-89987309D02*
X152642857Y-89963500D01*
X152642857Y-89963500D02*
X152619047Y-89939690D01*
X152619047Y-89939690D02*
X152595238Y-89892071D01*
X152595238Y-89892071D02*
X152595238Y-89487309D01*
X152380951Y-89534928D02*
X152357142Y-89511119D01*
X152357142Y-89511119D02*
X152309523Y-89487309D01*
X152309523Y-89487309D02*
X152190475Y-89487309D01*
X152190475Y-89487309D02*
X152142856Y-89511119D01*
X152142856Y-89511119D02*
X152119047Y-89534928D01*
X152119047Y-89534928D02*
X152095237Y-89582547D01*
X152095237Y-89582547D02*
X152095237Y-89630166D01*
X152095237Y-89630166D02*
X152119047Y-89701595D01*
X152119047Y-89701595D02*
X152404761Y-89987309D01*
X152404761Y-89987309D02*
X152095237Y-89987309D01*
X149221428Y-119924809D02*
X149388094Y-119686714D01*
X149507142Y-119924809D02*
X149507142Y-119424809D01*
X149507142Y-119424809D02*
X149316666Y-119424809D01*
X149316666Y-119424809D02*
X149269047Y-119448619D01*
X149269047Y-119448619D02*
X149245237Y-119472428D01*
X149245237Y-119472428D02*
X149221428Y-119520047D01*
X149221428Y-119520047D02*
X149221428Y-119591476D01*
X149221428Y-119591476D02*
X149245237Y-119639095D01*
X149245237Y-119639095D02*
X149269047Y-119662904D01*
X149269047Y-119662904D02*
X149316666Y-119686714D01*
X149316666Y-119686714D02*
X149507142Y-119686714D01*
X148745237Y-119924809D02*
X149030951Y-119924809D01*
X148888094Y-119924809D02*
X148888094Y-119424809D01*
X148888094Y-119424809D02*
X148935713Y-119496238D01*
X148935713Y-119496238D02*
X148983332Y-119543857D01*
X148983332Y-119543857D02*
X149030951Y-119567666D01*
X148554761Y-119472428D02*
X148530952Y-119448619D01*
X148530952Y-119448619D02*
X148483333Y-119424809D01*
X148483333Y-119424809D02*
X148364285Y-119424809D01*
X148364285Y-119424809D02*
X148316666Y-119448619D01*
X148316666Y-119448619D02*
X148292857Y-119472428D01*
X148292857Y-119472428D02*
X148269047Y-119520047D01*
X148269047Y-119520047D02*
X148269047Y-119567666D01*
X148269047Y-119567666D02*
X148292857Y-119639095D01*
X148292857Y-119639095D02*
X148578571Y-119924809D01*
X148578571Y-119924809D02*
X148269047Y-119924809D01*
X160724809Y-135369047D02*
X161129571Y-135369047D01*
X161129571Y-135369047D02*
X161177190Y-135392857D01*
X161177190Y-135392857D02*
X161201000Y-135416666D01*
X161201000Y-135416666D02*
X161224809Y-135464285D01*
X161224809Y-135464285D02*
X161224809Y-135559523D01*
X161224809Y-135559523D02*
X161201000Y-135607142D01*
X161201000Y-135607142D02*
X161177190Y-135630952D01*
X161177190Y-135630952D02*
X161129571Y-135654761D01*
X161129571Y-135654761D02*
X160724809Y-135654761D01*
X160891476Y-136107143D02*
X161224809Y-136107143D01*
X160701000Y-135988095D02*
X161058142Y-135869048D01*
X161058142Y-135869048D02*
X161058142Y-136178571D01*
X154024809Y-133869047D02*
X154429571Y-133869047D01*
X154429571Y-133869047D02*
X154477190Y-133892857D01*
X154477190Y-133892857D02*
X154501000Y-133916666D01*
X154501000Y-133916666D02*
X154524809Y-133964285D01*
X154524809Y-133964285D02*
X154524809Y-134059523D01*
X154524809Y-134059523D02*
X154501000Y-134107142D01*
X154501000Y-134107142D02*
X154477190Y-134130952D01*
X154477190Y-134130952D02*
X154429571Y-134154761D01*
X154429571Y-134154761D02*
X154024809Y-134154761D01*
X154024809Y-134630952D02*
X154024809Y-134392857D01*
X154024809Y-134392857D02*
X154262904Y-134369048D01*
X154262904Y-134369048D02*
X154239095Y-134392857D01*
X154239095Y-134392857D02*
X154215285Y-134440476D01*
X154215285Y-134440476D02*
X154215285Y-134559524D01*
X154215285Y-134559524D02*
X154239095Y-134607143D01*
X154239095Y-134607143D02*
X154262904Y-134630952D01*
X154262904Y-134630952D02*
X154310523Y-134654762D01*
X154310523Y-134654762D02*
X154429571Y-134654762D01*
X154429571Y-134654762D02*
X154477190Y-134630952D01*
X154477190Y-134630952D02*
X154501000Y-134607143D01*
X154501000Y-134607143D02*
X154524809Y-134559524D01*
X154524809Y-134559524D02*
X154524809Y-134440476D01*
X154524809Y-134440476D02*
X154501000Y-134392857D01*
X154501000Y-134392857D02*
X154477190Y-134369048D01*
X156583333Y-125984809D02*
X156749999Y-125746714D01*
X156869047Y-125984809D02*
X156869047Y-125484809D01*
X156869047Y-125484809D02*
X156678571Y-125484809D01*
X156678571Y-125484809D02*
X156630952Y-125508619D01*
X156630952Y-125508619D02*
X156607142Y-125532428D01*
X156607142Y-125532428D02*
X156583333Y-125580047D01*
X156583333Y-125580047D02*
X156583333Y-125651476D01*
X156583333Y-125651476D02*
X156607142Y-125699095D01*
X156607142Y-125699095D02*
X156630952Y-125722904D01*
X156630952Y-125722904D02*
X156678571Y-125746714D01*
X156678571Y-125746714D02*
X156869047Y-125746714D01*
X156416666Y-125484809D02*
X156107142Y-125484809D01*
X156107142Y-125484809D02*
X156273809Y-125675285D01*
X156273809Y-125675285D02*
X156202380Y-125675285D01*
X156202380Y-125675285D02*
X156154761Y-125699095D01*
X156154761Y-125699095D02*
X156130952Y-125722904D01*
X156130952Y-125722904D02*
X156107142Y-125770523D01*
X156107142Y-125770523D02*
X156107142Y-125889571D01*
X156107142Y-125889571D02*
X156130952Y-125937190D01*
X156130952Y-125937190D02*
X156154761Y-125961000D01*
X156154761Y-125961000D02*
X156202380Y-125984809D01*
X156202380Y-125984809D02*
X156345237Y-125984809D01*
X156345237Y-125984809D02*
X156392856Y-125961000D01*
X156392856Y-125961000D02*
X156416666Y-125937190D01*
X150974809Y-130916666D02*
X150736714Y-130750000D01*
X150974809Y-130630952D02*
X150474809Y-130630952D01*
X150474809Y-130630952D02*
X150474809Y-130821428D01*
X150474809Y-130821428D02*
X150498619Y-130869047D01*
X150498619Y-130869047D02*
X150522428Y-130892857D01*
X150522428Y-130892857D02*
X150570047Y-130916666D01*
X150570047Y-130916666D02*
X150641476Y-130916666D01*
X150641476Y-130916666D02*
X150689095Y-130892857D01*
X150689095Y-130892857D02*
X150712904Y-130869047D01*
X150712904Y-130869047D02*
X150736714Y-130821428D01*
X150736714Y-130821428D02*
X150736714Y-130630952D01*
X150689095Y-131202381D02*
X150665285Y-131154762D01*
X150665285Y-131154762D02*
X150641476Y-131130952D01*
X150641476Y-131130952D02*
X150593857Y-131107143D01*
X150593857Y-131107143D02*
X150570047Y-131107143D01*
X150570047Y-131107143D02*
X150522428Y-131130952D01*
X150522428Y-131130952D02*
X150498619Y-131154762D01*
X150498619Y-131154762D02*
X150474809Y-131202381D01*
X150474809Y-131202381D02*
X150474809Y-131297619D01*
X150474809Y-131297619D02*
X150498619Y-131345238D01*
X150498619Y-131345238D02*
X150522428Y-131369047D01*
X150522428Y-131369047D02*
X150570047Y-131392857D01*
X150570047Y-131392857D02*
X150593857Y-131392857D01*
X150593857Y-131392857D02*
X150641476Y-131369047D01*
X150641476Y-131369047D02*
X150665285Y-131345238D01*
X150665285Y-131345238D02*
X150689095Y-131297619D01*
X150689095Y-131297619D02*
X150689095Y-131202381D01*
X150689095Y-131202381D02*
X150712904Y-131154762D01*
X150712904Y-131154762D02*
X150736714Y-131130952D01*
X150736714Y-131130952D02*
X150784333Y-131107143D01*
X150784333Y-131107143D02*
X150879571Y-131107143D01*
X150879571Y-131107143D02*
X150927190Y-131130952D01*
X150927190Y-131130952D02*
X150951000Y-131154762D01*
X150951000Y-131154762D02*
X150974809Y-131202381D01*
X150974809Y-131202381D02*
X150974809Y-131297619D01*
X150974809Y-131297619D02*
X150951000Y-131345238D01*
X150951000Y-131345238D02*
X150927190Y-131369047D01*
X150927190Y-131369047D02*
X150879571Y-131392857D01*
X150879571Y-131392857D02*
X150784333Y-131392857D01*
X150784333Y-131392857D02*
X150736714Y-131369047D01*
X150736714Y-131369047D02*
X150712904Y-131345238D01*
X150712904Y-131345238D02*
X150689095Y-131297619D01*
D11*
X150583333Y-66454819D02*
X150583333Y-67169104D01*
X150583333Y-67169104D02*
X150630952Y-67311961D01*
X150630952Y-67311961D02*
X150726190Y-67407200D01*
X150726190Y-67407200D02*
X150869047Y-67454819D01*
X150869047Y-67454819D02*
X150964285Y-67454819D01*
X150154761Y-66550057D02*
X150107142Y-66502438D01*
X150107142Y-66502438D02*
X150011904Y-66454819D01*
X150011904Y-66454819D02*
X149773809Y-66454819D01*
X149773809Y-66454819D02*
X149678571Y-66502438D01*
X149678571Y-66502438D02*
X149630952Y-66550057D01*
X149630952Y-66550057D02*
X149583333Y-66645295D01*
X149583333Y-66645295D02*
X149583333Y-66740533D01*
X149583333Y-66740533D02*
X149630952Y-66883390D01*
X149630952Y-66883390D02*
X150202380Y-67454819D01*
X150202380Y-67454819D02*
X149583333Y-67454819D01*
D12*
X151677190Y-89703571D02*
X151701000Y-89679762D01*
X151701000Y-89679762D02*
X151724809Y-89608333D01*
X151724809Y-89608333D02*
X151724809Y-89560714D01*
X151724809Y-89560714D02*
X151701000Y-89489286D01*
X151701000Y-89489286D02*
X151653380Y-89441667D01*
X151653380Y-89441667D02*
X151605761Y-89417857D01*
X151605761Y-89417857D02*
X151510523Y-89394048D01*
X151510523Y-89394048D02*
X151439095Y-89394048D01*
X151439095Y-89394048D02*
X151343857Y-89417857D01*
X151343857Y-89417857D02*
X151296238Y-89441667D01*
X151296238Y-89441667D02*
X151248619Y-89489286D01*
X151248619Y-89489286D02*
X151224809Y-89560714D01*
X151224809Y-89560714D02*
X151224809Y-89608333D01*
X151224809Y-89608333D02*
X151248619Y-89679762D01*
X151248619Y-89679762D02*
X151272428Y-89703571D01*
X151724809Y-90179762D02*
X151724809Y-89894048D01*
X151724809Y-90036905D02*
X151224809Y-90036905D01*
X151224809Y-90036905D02*
X151296238Y-89989286D01*
X151296238Y-89989286D02*
X151343857Y-89941667D01*
X151343857Y-89941667D02*
X151367666Y-89894048D01*
X151391476Y-90608333D02*
X151724809Y-90608333D01*
X151201000Y-90489285D02*
X151558142Y-90370238D01*
X151558142Y-90370238D02*
X151558142Y-90679761D01*
X150083333Y-127224809D02*
X150249999Y-126986714D01*
X150369047Y-127224809D02*
X150369047Y-126724809D01*
X150369047Y-126724809D02*
X150178571Y-126724809D01*
X150178571Y-126724809D02*
X150130952Y-126748619D01*
X150130952Y-126748619D02*
X150107142Y-126772428D01*
X150107142Y-126772428D02*
X150083333Y-126820047D01*
X150083333Y-126820047D02*
X150083333Y-126891476D01*
X150083333Y-126891476D02*
X150107142Y-126939095D01*
X150107142Y-126939095D02*
X150130952Y-126962904D01*
X150130952Y-126962904D02*
X150178571Y-126986714D01*
X150178571Y-126986714D02*
X150369047Y-126986714D01*
X149845237Y-127224809D02*
X149749999Y-127224809D01*
X149749999Y-127224809D02*
X149702380Y-127201000D01*
X149702380Y-127201000D02*
X149678571Y-127177190D01*
X149678571Y-127177190D02*
X149630952Y-127105761D01*
X149630952Y-127105761D02*
X149607142Y-127010523D01*
X149607142Y-127010523D02*
X149607142Y-126820047D01*
X149607142Y-126820047D02*
X149630952Y-126772428D01*
X149630952Y-126772428D02*
X149654761Y-126748619D01*
X149654761Y-126748619D02*
X149702380Y-126724809D01*
X149702380Y-126724809D02*
X149797618Y-126724809D01*
X149797618Y-126724809D02*
X149845237Y-126748619D01*
X149845237Y-126748619D02*
X149869047Y-126772428D01*
X149869047Y-126772428D02*
X149892856Y-126820047D01*
X149892856Y-126820047D02*
X149892856Y-126939095D01*
X149892856Y-126939095D02*
X149869047Y-126986714D01*
X149869047Y-126986714D02*
X149845237Y-127010523D01*
X149845237Y-127010523D02*
X149797618Y-127034333D01*
X149797618Y-127034333D02*
X149702380Y-127034333D01*
X149702380Y-127034333D02*
X149654761Y-127010523D01*
X149654761Y-127010523D02*
X149630952Y-126986714D01*
X149630952Y-126986714D02*
X149607142Y-126939095D01*
X152321428Y-119974809D02*
X152488094Y-119736714D01*
X152607142Y-119974809D02*
X152607142Y-119474809D01*
X152607142Y-119474809D02*
X152416666Y-119474809D01*
X152416666Y-119474809D02*
X152369047Y-119498619D01*
X152369047Y-119498619D02*
X152345237Y-119522428D01*
X152345237Y-119522428D02*
X152321428Y-119570047D01*
X152321428Y-119570047D02*
X152321428Y-119641476D01*
X152321428Y-119641476D02*
X152345237Y-119689095D01*
X152345237Y-119689095D02*
X152369047Y-119712904D01*
X152369047Y-119712904D02*
X152416666Y-119736714D01*
X152416666Y-119736714D02*
X152607142Y-119736714D01*
X151845237Y-119974809D02*
X152130951Y-119974809D01*
X151988094Y-119974809D02*
X151988094Y-119474809D01*
X151988094Y-119474809D02*
X152035713Y-119546238D01*
X152035713Y-119546238D02*
X152083332Y-119593857D01*
X152083332Y-119593857D02*
X152130951Y-119617666D01*
X151369047Y-119974809D02*
X151654761Y-119974809D01*
X151511904Y-119974809D02*
X151511904Y-119474809D01*
X151511904Y-119474809D02*
X151559523Y-119546238D01*
X151559523Y-119546238D02*
X151607142Y-119593857D01*
X151607142Y-119593857D02*
X151654761Y-119617666D01*
D11*
X155583333Y-78904819D02*
X155583333Y-79619104D01*
X155583333Y-79619104D02*
X155630952Y-79761961D01*
X155630952Y-79761961D02*
X155726190Y-79857200D01*
X155726190Y-79857200D02*
X155869047Y-79904819D01*
X155869047Y-79904819D02*
X155964285Y-79904819D01*
X154678571Y-78904819D02*
X154869047Y-78904819D01*
X154869047Y-78904819D02*
X154964285Y-78952438D01*
X154964285Y-78952438D02*
X155011904Y-79000057D01*
X155011904Y-79000057D02*
X155107142Y-79142914D01*
X155107142Y-79142914D02*
X155154761Y-79333390D01*
X155154761Y-79333390D02*
X155154761Y-79714342D01*
X155154761Y-79714342D02*
X155107142Y-79809580D01*
X155107142Y-79809580D02*
X155059523Y-79857200D01*
X155059523Y-79857200D02*
X154964285Y-79904819D01*
X154964285Y-79904819D02*
X154773809Y-79904819D01*
X154773809Y-79904819D02*
X154678571Y-79857200D01*
X154678571Y-79857200D02*
X154630952Y-79809580D01*
X154630952Y-79809580D02*
X154583333Y-79714342D01*
X154583333Y-79714342D02*
X154583333Y-79476247D01*
X154583333Y-79476247D02*
X154630952Y-79381009D01*
X154630952Y-79381009D02*
X154678571Y-79333390D01*
X154678571Y-79333390D02*
X154773809Y-79285771D01*
X154773809Y-79285771D02*
X154964285Y-79285771D01*
X154964285Y-79285771D02*
X155059523Y-79333390D01*
X155059523Y-79333390D02*
X155107142Y-79381009D01*
X155107142Y-79381009D02*
X155154761Y-79476247D01*
D12*
X155174809Y-123116666D02*
X155174809Y-122878571D01*
X155174809Y-122878571D02*
X154674809Y-122878571D01*
X154674809Y-123235714D02*
X154674809Y-123545238D01*
X154674809Y-123545238D02*
X154865285Y-123378571D01*
X154865285Y-123378571D02*
X154865285Y-123450000D01*
X154865285Y-123450000D02*
X154889095Y-123497619D01*
X154889095Y-123497619D02*
X154912904Y-123521428D01*
X154912904Y-123521428D02*
X154960523Y-123545238D01*
X154960523Y-123545238D02*
X155079571Y-123545238D01*
X155079571Y-123545238D02*
X155127190Y-123521428D01*
X155127190Y-123521428D02*
X155151000Y-123497619D01*
X155151000Y-123497619D02*
X155174809Y-123450000D01*
X155174809Y-123450000D02*
X155174809Y-123307143D01*
X155174809Y-123307143D02*
X155151000Y-123259524D01*
X155151000Y-123259524D02*
X155127190Y-123235714D01*
X150583333Y-119477190D02*
X150607142Y-119501000D01*
X150607142Y-119501000D02*
X150678571Y-119524809D01*
X150678571Y-119524809D02*
X150726190Y-119524809D01*
X150726190Y-119524809D02*
X150797618Y-119501000D01*
X150797618Y-119501000D02*
X150845237Y-119453380D01*
X150845237Y-119453380D02*
X150869047Y-119405761D01*
X150869047Y-119405761D02*
X150892856Y-119310523D01*
X150892856Y-119310523D02*
X150892856Y-119239095D01*
X150892856Y-119239095D02*
X150869047Y-119143857D01*
X150869047Y-119143857D02*
X150845237Y-119096238D01*
X150845237Y-119096238D02*
X150797618Y-119048619D01*
X150797618Y-119048619D02*
X150726190Y-119024809D01*
X150726190Y-119024809D02*
X150678571Y-119024809D01*
X150678571Y-119024809D02*
X150607142Y-119048619D01*
X150607142Y-119048619D02*
X150583333Y-119072428D01*
X150154761Y-119024809D02*
X150249999Y-119024809D01*
X150249999Y-119024809D02*
X150297618Y-119048619D01*
X150297618Y-119048619D02*
X150321428Y-119072428D01*
X150321428Y-119072428D02*
X150369047Y-119143857D01*
X150369047Y-119143857D02*
X150392856Y-119239095D01*
X150392856Y-119239095D02*
X150392856Y-119429571D01*
X150392856Y-119429571D02*
X150369047Y-119477190D01*
X150369047Y-119477190D02*
X150345237Y-119501000D01*
X150345237Y-119501000D02*
X150297618Y-119524809D01*
X150297618Y-119524809D02*
X150202380Y-119524809D01*
X150202380Y-119524809D02*
X150154761Y-119501000D01*
X150154761Y-119501000D02*
X150130952Y-119477190D01*
X150130952Y-119477190D02*
X150107142Y-119429571D01*
X150107142Y-119429571D02*
X150107142Y-119310523D01*
X150107142Y-119310523D02*
X150130952Y-119262904D01*
X150130952Y-119262904D02*
X150154761Y-119239095D01*
X150154761Y-119239095D02*
X150202380Y-119215285D01*
X150202380Y-119215285D02*
X150297618Y-119215285D01*
X150297618Y-119215285D02*
X150345237Y-119239095D01*
X150345237Y-119239095D02*
X150369047Y-119262904D01*
X150369047Y-119262904D02*
X150392856Y-119310523D01*
X159596428Y-139877190D02*
X159620237Y-139901000D01*
X159620237Y-139901000D02*
X159691666Y-139924809D01*
X159691666Y-139924809D02*
X159739285Y-139924809D01*
X159739285Y-139924809D02*
X159810713Y-139901000D01*
X159810713Y-139901000D02*
X159858332Y-139853380D01*
X159858332Y-139853380D02*
X159882142Y-139805761D01*
X159882142Y-139805761D02*
X159905951Y-139710523D01*
X159905951Y-139710523D02*
X159905951Y-139639095D01*
X159905951Y-139639095D02*
X159882142Y-139543857D01*
X159882142Y-139543857D02*
X159858332Y-139496238D01*
X159858332Y-139496238D02*
X159810713Y-139448619D01*
X159810713Y-139448619D02*
X159739285Y-139424809D01*
X159739285Y-139424809D02*
X159691666Y-139424809D01*
X159691666Y-139424809D02*
X159620237Y-139448619D01*
X159620237Y-139448619D02*
X159596428Y-139472428D01*
X159405951Y-139472428D02*
X159382142Y-139448619D01*
X159382142Y-139448619D02*
X159334523Y-139424809D01*
X159334523Y-139424809D02*
X159215475Y-139424809D01*
X159215475Y-139424809D02*
X159167856Y-139448619D01*
X159167856Y-139448619D02*
X159144047Y-139472428D01*
X159144047Y-139472428D02*
X159120237Y-139520047D01*
X159120237Y-139520047D02*
X159120237Y-139567666D01*
X159120237Y-139567666D02*
X159144047Y-139639095D01*
X159144047Y-139639095D02*
X159429761Y-139924809D01*
X159429761Y-139924809D02*
X159120237Y-139924809D01*
X158691666Y-139424809D02*
X158786904Y-139424809D01*
X158786904Y-139424809D02*
X158834523Y-139448619D01*
X158834523Y-139448619D02*
X158858333Y-139472428D01*
X158858333Y-139472428D02*
X158905952Y-139543857D01*
X158905952Y-139543857D02*
X158929761Y-139639095D01*
X158929761Y-139639095D02*
X158929761Y-139829571D01*
X158929761Y-139829571D02*
X158905952Y-139877190D01*
X158905952Y-139877190D02*
X158882142Y-139901000D01*
X158882142Y-139901000D02*
X158834523Y-139924809D01*
X158834523Y-139924809D02*
X158739285Y-139924809D01*
X158739285Y-139924809D02*
X158691666Y-139901000D01*
X158691666Y-139901000D02*
X158667857Y-139877190D01*
X158667857Y-139877190D02*
X158644047Y-139829571D01*
X158644047Y-139829571D02*
X158644047Y-139710523D01*
X158644047Y-139710523D02*
X158667857Y-139662904D01*
X158667857Y-139662904D02*
X158691666Y-139639095D01*
X158691666Y-139639095D02*
X158739285Y-139615285D01*
X158739285Y-139615285D02*
X158834523Y-139615285D01*
X158834523Y-139615285D02*
X158882142Y-139639095D01*
X158882142Y-139639095D02*
X158905952Y-139662904D01*
X158905952Y-139662904D02*
X158929761Y-139710523D01*
X150858928Y-136427190D02*
X150882737Y-136451000D01*
X150882737Y-136451000D02*
X150954166Y-136474809D01*
X150954166Y-136474809D02*
X151001785Y-136474809D01*
X151001785Y-136474809D02*
X151073213Y-136451000D01*
X151073213Y-136451000D02*
X151120832Y-136403380D01*
X151120832Y-136403380D02*
X151144642Y-136355761D01*
X151144642Y-136355761D02*
X151168451Y-136260523D01*
X151168451Y-136260523D02*
X151168451Y-136189095D01*
X151168451Y-136189095D02*
X151144642Y-136093857D01*
X151144642Y-136093857D02*
X151120832Y-136046238D01*
X151120832Y-136046238D02*
X151073213Y-135998619D01*
X151073213Y-135998619D02*
X151001785Y-135974809D01*
X151001785Y-135974809D02*
X150954166Y-135974809D01*
X150954166Y-135974809D02*
X150882737Y-135998619D01*
X150882737Y-135998619D02*
X150858928Y-136022428D01*
X150692261Y-135974809D02*
X150382737Y-135974809D01*
X150382737Y-135974809D02*
X150549404Y-136165285D01*
X150549404Y-136165285D02*
X150477975Y-136165285D01*
X150477975Y-136165285D02*
X150430356Y-136189095D01*
X150430356Y-136189095D02*
X150406547Y-136212904D01*
X150406547Y-136212904D02*
X150382737Y-136260523D01*
X150382737Y-136260523D02*
X150382737Y-136379571D01*
X150382737Y-136379571D02*
X150406547Y-136427190D01*
X150406547Y-136427190D02*
X150430356Y-136451000D01*
X150430356Y-136451000D02*
X150477975Y-136474809D01*
X150477975Y-136474809D02*
X150620832Y-136474809D01*
X150620832Y-136474809D02*
X150668451Y-136451000D01*
X150668451Y-136451000D02*
X150692261Y-136427190D01*
X149906547Y-136474809D02*
X150192261Y-136474809D01*
X150049404Y-136474809D02*
X150049404Y-135974809D01*
X150049404Y-135974809D02*
X150097023Y-136046238D01*
X150097023Y-136046238D02*
X150144642Y-136093857D01*
X150144642Y-136093857D02*
X150192261Y-136117666D01*
D11*
X151238095Y-123745180D02*
X151238095Y-122935657D01*
X151238095Y-122935657D02*
X151285714Y-122840419D01*
X151285714Y-122840419D02*
X151333333Y-122792800D01*
X151333333Y-122792800D02*
X151428571Y-122745180D01*
X151428571Y-122745180D02*
X151619047Y-122745180D01*
X151619047Y-122745180D02*
X151714285Y-122792800D01*
X151714285Y-122792800D02*
X151761904Y-122840419D01*
X151761904Y-122840419D02*
X151809523Y-122935657D01*
X151809523Y-122935657D02*
X151809523Y-123745180D01*
X152190476Y-123745180D02*
X152857142Y-123745180D01*
X152857142Y-123745180D02*
X152428571Y-122745180D01*
X149382200Y-88491667D02*
X149429819Y-88634524D01*
X149429819Y-88634524D02*
X149429819Y-88872619D01*
X149429819Y-88872619D02*
X149382200Y-88967857D01*
X149382200Y-88967857D02*
X149334580Y-89015476D01*
X149334580Y-89015476D02*
X149239342Y-89063095D01*
X149239342Y-89063095D02*
X149144104Y-89063095D01*
X149144104Y-89063095D02*
X149048866Y-89015476D01*
X149048866Y-89015476D02*
X149001247Y-88967857D01*
X149001247Y-88967857D02*
X148953628Y-88872619D01*
X148953628Y-88872619D02*
X148906009Y-88682143D01*
X148906009Y-88682143D02*
X148858390Y-88586905D01*
X148858390Y-88586905D02*
X148810771Y-88539286D01*
X148810771Y-88539286D02*
X148715533Y-88491667D01*
X148715533Y-88491667D02*
X148620295Y-88491667D01*
X148620295Y-88491667D02*
X148525057Y-88539286D01*
X148525057Y-88539286D02*
X148477438Y-88586905D01*
X148477438Y-88586905D02*
X148429819Y-88682143D01*
X148429819Y-88682143D02*
X148429819Y-88920238D01*
X148429819Y-88920238D02*
X148477438Y-89063095D01*
X148429819Y-89396429D02*
X149429819Y-89634524D01*
X149429819Y-89634524D02*
X148715533Y-89825000D01*
X148715533Y-89825000D02*
X149429819Y-90015476D01*
X149429819Y-90015476D02*
X148429819Y-90253572D01*
X148858390Y-90777381D02*
X148810771Y-90682143D01*
X148810771Y-90682143D02*
X148763152Y-90634524D01*
X148763152Y-90634524D02*
X148667914Y-90586905D01*
X148667914Y-90586905D02*
X148620295Y-90586905D01*
X148620295Y-90586905D02*
X148525057Y-90634524D01*
X148525057Y-90634524D02*
X148477438Y-90682143D01*
X148477438Y-90682143D02*
X148429819Y-90777381D01*
X148429819Y-90777381D02*
X148429819Y-90967857D01*
X148429819Y-90967857D02*
X148477438Y-91063095D01*
X148477438Y-91063095D02*
X148525057Y-91110714D01*
X148525057Y-91110714D02*
X148620295Y-91158333D01*
X148620295Y-91158333D02*
X148667914Y-91158333D01*
X148667914Y-91158333D02*
X148763152Y-91110714D01*
X148763152Y-91110714D02*
X148810771Y-91063095D01*
X148810771Y-91063095D02*
X148858390Y-90967857D01*
X148858390Y-90967857D02*
X148858390Y-90777381D01*
X148858390Y-90777381D02*
X148906009Y-90682143D01*
X148906009Y-90682143D02*
X148953628Y-90634524D01*
X148953628Y-90634524D02*
X149048866Y-90586905D01*
X149048866Y-90586905D02*
X149239342Y-90586905D01*
X149239342Y-90586905D02*
X149334580Y-90634524D01*
X149334580Y-90634524D02*
X149382200Y-90682143D01*
X149382200Y-90682143D02*
X149429819Y-90777381D01*
X149429819Y-90777381D02*
X149429819Y-90967857D01*
X149429819Y-90967857D02*
X149382200Y-91063095D01*
X149382200Y-91063095D02*
X149334580Y-91110714D01*
X149334580Y-91110714D02*
X149239342Y-91158333D01*
X149239342Y-91158333D02*
X149048866Y-91158333D01*
X149048866Y-91158333D02*
X148953628Y-91110714D01*
X148953628Y-91110714D02*
X148906009Y-91063095D01*
X148906009Y-91063095D02*
X148858390Y-90967857D01*
D12*
X149221428Y-123284809D02*
X149388094Y-123046714D01*
X149507142Y-123284809D02*
X149507142Y-122784809D01*
X149507142Y-122784809D02*
X149316666Y-122784809D01*
X149316666Y-122784809D02*
X149269047Y-122808619D01*
X149269047Y-122808619D02*
X149245237Y-122832428D01*
X149245237Y-122832428D02*
X149221428Y-122880047D01*
X149221428Y-122880047D02*
X149221428Y-122951476D01*
X149221428Y-122951476D02*
X149245237Y-122999095D01*
X149245237Y-122999095D02*
X149269047Y-123022904D01*
X149269047Y-123022904D02*
X149316666Y-123046714D01*
X149316666Y-123046714D02*
X149507142Y-123046714D01*
X148745237Y-123284809D02*
X149030951Y-123284809D01*
X148888094Y-123284809D02*
X148888094Y-122784809D01*
X148888094Y-122784809D02*
X148935713Y-122856238D01*
X148935713Y-122856238D02*
X148983332Y-122903857D01*
X148983332Y-122903857D02*
X149030951Y-122927666D01*
X148435714Y-122784809D02*
X148388095Y-122784809D01*
X148388095Y-122784809D02*
X148340476Y-122808619D01*
X148340476Y-122808619D02*
X148316666Y-122832428D01*
X148316666Y-122832428D02*
X148292857Y-122880047D01*
X148292857Y-122880047D02*
X148269047Y-122975285D01*
X148269047Y-122975285D02*
X148269047Y-123094333D01*
X148269047Y-123094333D02*
X148292857Y-123189571D01*
X148292857Y-123189571D02*
X148316666Y-123237190D01*
X148316666Y-123237190D02*
X148340476Y-123261000D01*
X148340476Y-123261000D02*
X148388095Y-123284809D01*
X148388095Y-123284809D02*
X148435714Y-123284809D01*
X148435714Y-123284809D02*
X148483333Y-123261000D01*
X148483333Y-123261000D02*
X148507142Y-123237190D01*
X148507142Y-123237190D02*
X148530952Y-123189571D01*
X148530952Y-123189571D02*
X148554761Y-123094333D01*
X148554761Y-123094333D02*
X148554761Y-122975285D01*
X148554761Y-122975285D02*
X148530952Y-122880047D01*
X148530952Y-122880047D02*
X148507142Y-122832428D01*
X148507142Y-122832428D02*
X148483333Y-122808619D01*
X148483333Y-122808619D02*
X148435714Y-122784809D01*
X147677190Y-117666666D02*
X147701000Y-117642857D01*
X147701000Y-117642857D02*
X147724809Y-117571428D01*
X147724809Y-117571428D02*
X147724809Y-117523809D01*
X147724809Y-117523809D02*
X147701000Y-117452381D01*
X147701000Y-117452381D02*
X147653380Y-117404762D01*
X147653380Y-117404762D02*
X147605761Y-117380952D01*
X147605761Y-117380952D02*
X147510523Y-117357143D01*
X147510523Y-117357143D02*
X147439095Y-117357143D01*
X147439095Y-117357143D02*
X147343857Y-117380952D01*
X147343857Y-117380952D02*
X147296238Y-117404762D01*
X147296238Y-117404762D02*
X147248619Y-117452381D01*
X147248619Y-117452381D02*
X147224809Y-117523809D01*
X147224809Y-117523809D02*
X147224809Y-117571428D01*
X147224809Y-117571428D02*
X147248619Y-117642857D01*
X147248619Y-117642857D02*
X147272428Y-117666666D01*
X147391476Y-118095238D02*
X147724809Y-118095238D01*
X147201000Y-117976190D02*
X147558142Y-117857143D01*
X147558142Y-117857143D02*
X147558142Y-118166666D01*
X155727190Y-89428571D02*
X155751000Y-89404762D01*
X155751000Y-89404762D02*
X155774809Y-89333333D01*
X155774809Y-89333333D02*
X155774809Y-89285714D01*
X155774809Y-89285714D02*
X155751000Y-89214286D01*
X155751000Y-89214286D02*
X155703380Y-89166667D01*
X155703380Y-89166667D02*
X155655761Y-89142857D01*
X155655761Y-89142857D02*
X155560523Y-89119048D01*
X155560523Y-89119048D02*
X155489095Y-89119048D01*
X155489095Y-89119048D02*
X155393857Y-89142857D01*
X155393857Y-89142857D02*
X155346238Y-89166667D01*
X155346238Y-89166667D02*
X155298619Y-89214286D01*
X155298619Y-89214286D02*
X155274809Y-89285714D01*
X155274809Y-89285714D02*
X155274809Y-89333333D01*
X155274809Y-89333333D02*
X155298619Y-89404762D01*
X155298619Y-89404762D02*
X155322428Y-89428571D01*
X155774809Y-89904762D02*
X155774809Y-89619048D01*
X155774809Y-89761905D02*
X155274809Y-89761905D01*
X155274809Y-89761905D02*
X155346238Y-89714286D01*
X155346238Y-89714286D02*
X155393857Y-89666667D01*
X155393857Y-89666667D02*
X155417666Y-89619048D01*
X155489095Y-90190476D02*
X155465285Y-90142857D01*
X155465285Y-90142857D02*
X155441476Y-90119047D01*
X155441476Y-90119047D02*
X155393857Y-90095238D01*
X155393857Y-90095238D02*
X155370047Y-90095238D01*
X155370047Y-90095238D02*
X155322428Y-90119047D01*
X155322428Y-90119047D02*
X155298619Y-90142857D01*
X155298619Y-90142857D02*
X155274809Y-90190476D01*
X155274809Y-90190476D02*
X155274809Y-90285714D01*
X155274809Y-90285714D02*
X155298619Y-90333333D01*
X155298619Y-90333333D02*
X155322428Y-90357142D01*
X155322428Y-90357142D02*
X155370047Y-90380952D01*
X155370047Y-90380952D02*
X155393857Y-90380952D01*
X155393857Y-90380952D02*
X155441476Y-90357142D01*
X155441476Y-90357142D02*
X155465285Y-90333333D01*
X155465285Y-90333333D02*
X155489095Y-90285714D01*
X155489095Y-90285714D02*
X155489095Y-90190476D01*
X155489095Y-90190476D02*
X155512904Y-90142857D01*
X155512904Y-90142857D02*
X155536714Y-90119047D01*
X155536714Y-90119047D02*
X155584333Y-90095238D01*
X155584333Y-90095238D02*
X155679571Y-90095238D01*
X155679571Y-90095238D02*
X155727190Y-90119047D01*
X155727190Y-90119047D02*
X155751000Y-90142857D01*
X155751000Y-90142857D02*
X155774809Y-90190476D01*
X155774809Y-90190476D02*
X155774809Y-90285714D01*
X155774809Y-90285714D02*
X155751000Y-90333333D01*
X155751000Y-90333333D02*
X155727190Y-90357142D01*
X155727190Y-90357142D02*
X155679571Y-90380952D01*
X155679571Y-90380952D02*
X155584333Y-90380952D01*
X155584333Y-90380952D02*
X155536714Y-90357142D01*
X155536714Y-90357142D02*
X155512904Y-90333333D01*
X155512904Y-90333333D02*
X155489095Y-90285714D01*
X154427190Y-130378571D02*
X154451000Y-130354762D01*
X154451000Y-130354762D02*
X154474809Y-130283333D01*
X154474809Y-130283333D02*
X154474809Y-130235714D01*
X154474809Y-130235714D02*
X154451000Y-130164286D01*
X154451000Y-130164286D02*
X154403380Y-130116667D01*
X154403380Y-130116667D02*
X154355761Y-130092857D01*
X154355761Y-130092857D02*
X154260523Y-130069048D01*
X154260523Y-130069048D02*
X154189095Y-130069048D01*
X154189095Y-130069048D02*
X154093857Y-130092857D01*
X154093857Y-130092857D02*
X154046238Y-130116667D01*
X154046238Y-130116667D02*
X153998619Y-130164286D01*
X153998619Y-130164286D02*
X153974809Y-130235714D01*
X153974809Y-130235714D02*
X153974809Y-130283333D01*
X153974809Y-130283333D02*
X153998619Y-130354762D01*
X153998619Y-130354762D02*
X154022428Y-130378571D01*
X153974809Y-130545238D02*
X153974809Y-130854762D01*
X153974809Y-130854762D02*
X154165285Y-130688095D01*
X154165285Y-130688095D02*
X154165285Y-130759524D01*
X154165285Y-130759524D02*
X154189095Y-130807143D01*
X154189095Y-130807143D02*
X154212904Y-130830952D01*
X154212904Y-130830952D02*
X154260523Y-130854762D01*
X154260523Y-130854762D02*
X154379571Y-130854762D01*
X154379571Y-130854762D02*
X154427190Y-130830952D01*
X154427190Y-130830952D02*
X154451000Y-130807143D01*
X154451000Y-130807143D02*
X154474809Y-130759524D01*
X154474809Y-130759524D02*
X154474809Y-130616667D01*
X154474809Y-130616667D02*
X154451000Y-130569048D01*
X154451000Y-130569048D02*
X154427190Y-130545238D01*
X153974809Y-131021428D02*
X153974809Y-131330952D01*
X153974809Y-131330952D02*
X154165285Y-131164285D01*
X154165285Y-131164285D02*
X154165285Y-131235714D01*
X154165285Y-131235714D02*
X154189095Y-131283333D01*
X154189095Y-131283333D02*
X154212904Y-131307142D01*
X154212904Y-131307142D02*
X154260523Y-131330952D01*
X154260523Y-131330952D02*
X154379571Y-131330952D01*
X154379571Y-131330952D02*
X154427190Y-131307142D01*
X154427190Y-131307142D02*
X154451000Y-131283333D01*
X154451000Y-131283333D02*
X154474809Y-131235714D01*
X154474809Y-131235714D02*
X154474809Y-131092857D01*
X154474809Y-131092857D02*
X154451000Y-131045238D01*
X154451000Y-131045238D02*
X154427190Y-131021428D01*
X156821428Y-127627190D02*
X156845237Y-127651000D01*
X156845237Y-127651000D02*
X156916666Y-127674809D01*
X156916666Y-127674809D02*
X156964285Y-127674809D01*
X156964285Y-127674809D02*
X157035713Y-127651000D01*
X157035713Y-127651000D02*
X157083332Y-127603380D01*
X157083332Y-127603380D02*
X157107142Y-127555761D01*
X157107142Y-127555761D02*
X157130951Y-127460523D01*
X157130951Y-127460523D02*
X157130951Y-127389095D01*
X157130951Y-127389095D02*
X157107142Y-127293857D01*
X157107142Y-127293857D02*
X157083332Y-127246238D01*
X157083332Y-127246238D02*
X157035713Y-127198619D01*
X157035713Y-127198619D02*
X156964285Y-127174809D01*
X156964285Y-127174809D02*
X156916666Y-127174809D01*
X156916666Y-127174809D02*
X156845237Y-127198619D01*
X156845237Y-127198619D02*
X156821428Y-127222428D01*
X156654761Y-127174809D02*
X156345237Y-127174809D01*
X156345237Y-127174809D02*
X156511904Y-127365285D01*
X156511904Y-127365285D02*
X156440475Y-127365285D01*
X156440475Y-127365285D02*
X156392856Y-127389095D01*
X156392856Y-127389095D02*
X156369047Y-127412904D01*
X156369047Y-127412904D02*
X156345237Y-127460523D01*
X156345237Y-127460523D02*
X156345237Y-127579571D01*
X156345237Y-127579571D02*
X156369047Y-127627190D01*
X156369047Y-127627190D02*
X156392856Y-127651000D01*
X156392856Y-127651000D02*
X156440475Y-127674809D01*
X156440475Y-127674809D02*
X156583332Y-127674809D01*
X156583332Y-127674809D02*
X156630951Y-127651000D01*
X156630951Y-127651000D02*
X156654761Y-127627190D01*
X155916666Y-127341476D02*
X155916666Y-127674809D01*
X156035714Y-127151000D02*
X156154761Y-127508142D01*
X156154761Y-127508142D02*
X155845238Y-127508142D01*
X151427190Y-98678571D02*
X151451000Y-98654762D01*
X151451000Y-98654762D02*
X151474809Y-98583333D01*
X151474809Y-98583333D02*
X151474809Y-98535714D01*
X151474809Y-98535714D02*
X151451000Y-98464286D01*
X151451000Y-98464286D02*
X151403380Y-98416667D01*
X151403380Y-98416667D02*
X151355761Y-98392857D01*
X151355761Y-98392857D02*
X151260523Y-98369048D01*
X151260523Y-98369048D02*
X151189095Y-98369048D01*
X151189095Y-98369048D02*
X151093857Y-98392857D01*
X151093857Y-98392857D02*
X151046238Y-98416667D01*
X151046238Y-98416667D02*
X150998619Y-98464286D01*
X150998619Y-98464286D02*
X150974809Y-98535714D01*
X150974809Y-98535714D02*
X150974809Y-98583333D01*
X150974809Y-98583333D02*
X150998619Y-98654762D01*
X150998619Y-98654762D02*
X151022428Y-98678571D01*
X151474809Y-99154762D02*
X151474809Y-98869048D01*
X151474809Y-99011905D02*
X150974809Y-99011905D01*
X150974809Y-99011905D02*
X151046238Y-98964286D01*
X151046238Y-98964286D02*
X151093857Y-98916667D01*
X151093857Y-98916667D02*
X151117666Y-98869048D01*
X150974809Y-99607142D02*
X150974809Y-99369047D01*
X150974809Y-99369047D02*
X151212904Y-99345238D01*
X151212904Y-99345238D02*
X151189095Y-99369047D01*
X151189095Y-99369047D02*
X151165285Y-99416666D01*
X151165285Y-99416666D02*
X151165285Y-99535714D01*
X151165285Y-99535714D02*
X151189095Y-99583333D01*
X151189095Y-99583333D02*
X151212904Y-99607142D01*
X151212904Y-99607142D02*
X151260523Y-99630952D01*
X151260523Y-99630952D02*
X151379571Y-99630952D01*
X151379571Y-99630952D02*
X151427190Y-99607142D01*
X151427190Y-99607142D02*
X151451000Y-99583333D01*
X151451000Y-99583333D02*
X151474809Y-99535714D01*
X151474809Y-99535714D02*
X151474809Y-99416666D01*
X151474809Y-99416666D02*
X151451000Y-99369047D01*
X151451000Y-99369047D02*
X151427190Y-99345238D01*
X160571428Y-147627190D02*
X160595237Y-147651000D01*
X160595237Y-147651000D02*
X160666666Y-147674809D01*
X160666666Y-147674809D02*
X160714285Y-147674809D01*
X160714285Y-147674809D02*
X160785713Y-147651000D01*
X160785713Y-147651000D02*
X160833332Y-147603380D01*
X160833332Y-147603380D02*
X160857142Y-147555761D01*
X160857142Y-147555761D02*
X160880951Y-147460523D01*
X160880951Y-147460523D02*
X160880951Y-147389095D01*
X160880951Y-147389095D02*
X160857142Y-147293857D01*
X160857142Y-147293857D02*
X160833332Y-147246238D01*
X160833332Y-147246238D02*
X160785713Y-147198619D01*
X160785713Y-147198619D02*
X160714285Y-147174809D01*
X160714285Y-147174809D02*
X160666666Y-147174809D01*
X160666666Y-147174809D02*
X160595237Y-147198619D01*
X160595237Y-147198619D02*
X160571428Y-147222428D01*
X160095237Y-147674809D02*
X160380951Y-147674809D01*
X160238094Y-147674809D02*
X160238094Y-147174809D01*
X160238094Y-147174809D02*
X160285713Y-147246238D01*
X160285713Y-147246238D02*
X160333332Y-147293857D01*
X160333332Y-147293857D02*
X160380951Y-147317666D01*
X159857142Y-147674809D02*
X159761904Y-147674809D01*
X159761904Y-147674809D02*
X159714285Y-147651000D01*
X159714285Y-147651000D02*
X159690476Y-147627190D01*
X159690476Y-147627190D02*
X159642857Y-147555761D01*
X159642857Y-147555761D02*
X159619047Y-147460523D01*
X159619047Y-147460523D02*
X159619047Y-147270047D01*
X159619047Y-147270047D02*
X159642857Y-147222428D01*
X159642857Y-147222428D02*
X159666666Y-147198619D01*
X159666666Y-147198619D02*
X159714285Y-147174809D01*
X159714285Y-147174809D02*
X159809523Y-147174809D01*
X159809523Y-147174809D02*
X159857142Y-147198619D01*
X159857142Y-147198619D02*
X159880952Y-147222428D01*
X159880952Y-147222428D02*
X159904761Y-147270047D01*
X159904761Y-147270047D02*
X159904761Y-147389095D01*
X159904761Y-147389095D02*
X159880952Y-147436714D01*
X159880952Y-147436714D02*
X159857142Y-147460523D01*
X159857142Y-147460523D02*
X159809523Y-147484333D01*
X159809523Y-147484333D02*
X159714285Y-147484333D01*
X159714285Y-147484333D02*
X159666666Y-147460523D01*
X159666666Y-147460523D02*
X159642857Y-147436714D01*
X159642857Y-147436714D02*
X159619047Y-147389095D01*
D11*
X154583333Y-146904819D02*
X154583333Y-147619104D01*
X154583333Y-147619104D02*
X154630952Y-147761961D01*
X154630952Y-147761961D02*
X154726190Y-147857200D01*
X154726190Y-147857200D02*
X154869047Y-147904819D01*
X154869047Y-147904819D02*
X154964285Y-147904819D01*
X154202380Y-146904819D02*
X153583333Y-146904819D01*
X153583333Y-146904819D02*
X153916666Y-147285771D01*
X153916666Y-147285771D02*
X153773809Y-147285771D01*
X153773809Y-147285771D02*
X153678571Y-147333390D01*
X153678571Y-147333390D02*
X153630952Y-147381009D01*
X153630952Y-147381009D02*
X153583333Y-147476247D01*
X153583333Y-147476247D02*
X153583333Y-147714342D01*
X153583333Y-147714342D02*
X153630952Y-147809580D01*
X153630952Y-147809580D02*
X153678571Y-147857200D01*
X153678571Y-147857200D02*
X153773809Y-147904819D01*
X153773809Y-147904819D02*
X154059523Y-147904819D01*
X154059523Y-147904819D02*
X154154761Y-147857200D01*
X154154761Y-147857200D02*
X154202380Y-147809580D01*
X159539999Y-141909719D02*
X159539999Y-142147814D01*
X159778094Y-142052576D02*
X159539999Y-142147814D01*
X159539999Y-142147814D02*
X159301904Y-142052576D01*
X159682856Y-142338290D02*
X159539999Y-142147814D01*
X159539999Y-142147814D02*
X159397142Y-142338290D01*
X159539999Y-141909719D02*
X159539999Y-142147814D01*
X159778094Y-142052576D02*
X159539999Y-142147814D01*
X159539999Y-142147814D02*
X159301904Y-142052576D01*
X159682856Y-142338290D02*
X159539999Y-142147814D01*
X159539999Y-142147814D02*
X159397142Y-142338290D01*
X159907200Y-96366667D02*
X159954819Y-96509524D01*
X159954819Y-96509524D02*
X159954819Y-96747619D01*
X159954819Y-96747619D02*
X159907200Y-96842857D01*
X159907200Y-96842857D02*
X159859580Y-96890476D01*
X159859580Y-96890476D02*
X159764342Y-96938095D01*
X159764342Y-96938095D02*
X159669104Y-96938095D01*
X159669104Y-96938095D02*
X159573866Y-96890476D01*
X159573866Y-96890476D02*
X159526247Y-96842857D01*
X159526247Y-96842857D02*
X159478628Y-96747619D01*
X159478628Y-96747619D02*
X159431009Y-96557143D01*
X159431009Y-96557143D02*
X159383390Y-96461905D01*
X159383390Y-96461905D02*
X159335771Y-96414286D01*
X159335771Y-96414286D02*
X159240533Y-96366667D01*
X159240533Y-96366667D02*
X159145295Y-96366667D01*
X159145295Y-96366667D02*
X159050057Y-96414286D01*
X159050057Y-96414286D02*
X159002438Y-96461905D01*
X159002438Y-96461905D02*
X158954819Y-96557143D01*
X158954819Y-96557143D02*
X158954819Y-96795238D01*
X158954819Y-96795238D02*
X159002438Y-96938095D01*
X158954819Y-97271429D02*
X159954819Y-97509524D01*
X159954819Y-97509524D02*
X159240533Y-97700000D01*
X159240533Y-97700000D02*
X159954819Y-97890476D01*
X159954819Y-97890476D02*
X158954819Y-98128572D01*
X159288152Y-98938095D02*
X159954819Y-98938095D01*
X158907200Y-98700000D02*
X159621485Y-98461905D01*
X159621485Y-98461905D02*
X159621485Y-99080952D01*
D12*
X155546428Y-136427190D02*
X155570237Y-136451000D01*
X155570237Y-136451000D02*
X155641666Y-136474809D01*
X155641666Y-136474809D02*
X155689285Y-136474809D01*
X155689285Y-136474809D02*
X155760713Y-136451000D01*
X155760713Y-136451000D02*
X155808332Y-136403380D01*
X155808332Y-136403380D02*
X155832142Y-136355761D01*
X155832142Y-136355761D02*
X155855951Y-136260523D01*
X155855951Y-136260523D02*
X155855951Y-136189095D01*
X155855951Y-136189095D02*
X155832142Y-136093857D01*
X155832142Y-136093857D02*
X155808332Y-136046238D01*
X155808332Y-136046238D02*
X155760713Y-135998619D01*
X155760713Y-135998619D02*
X155689285Y-135974809D01*
X155689285Y-135974809D02*
X155641666Y-135974809D01*
X155641666Y-135974809D02*
X155570237Y-135998619D01*
X155570237Y-135998619D02*
X155546428Y-136022428D01*
X155379761Y-135974809D02*
X155070237Y-135974809D01*
X155070237Y-135974809D02*
X155236904Y-136165285D01*
X155236904Y-136165285D02*
X155165475Y-136165285D01*
X155165475Y-136165285D02*
X155117856Y-136189095D01*
X155117856Y-136189095D02*
X155094047Y-136212904D01*
X155094047Y-136212904D02*
X155070237Y-136260523D01*
X155070237Y-136260523D02*
X155070237Y-136379571D01*
X155070237Y-136379571D02*
X155094047Y-136427190D01*
X155094047Y-136427190D02*
X155117856Y-136451000D01*
X155117856Y-136451000D02*
X155165475Y-136474809D01*
X155165475Y-136474809D02*
X155308332Y-136474809D01*
X155308332Y-136474809D02*
X155355951Y-136451000D01*
X155355951Y-136451000D02*
X155379761Y-136427190D01*
X154760714Y-135974809D02*
X154713095Y-135974809D01*
X154713095Y-135974809D02*
X154665476Y-135998619D01*
X154665476Y-135998619D02*
X154641666Y-136022428D01*
X154641666Y-136022428D02*
X154617857Y-136070047D01*
X154617857Y-136070047D02*
X154594047Y-136165285D01*
X154594047Y-136165285D02*
X154594047Y-136284333D01*
X154594047Y-136284333D02*
X154617857Y-136379571D01*
X154617857Y-136379571D02*
X154641666Y-136427190D01*
X154641666Y-136427190D02*
X154665476Y-136451000D01*
X154665476Y-136451000D02*
X154713095Y-136474809D01*
X154713095Y-136474809D02*
X154760714Y-136474809D01*
X154760714Y-136474809D02*
X154808333Y-136451000D01*
X154808333Y-136451000D02*
X154832142Y-136427190D01*
X154832142Y-136427190D02*
X154855952Y-136379571D01*
X154855952Y-136379571D02*
X154879761Y-136284333D01*
X154879761Y-136284333D02*
X154879761Y-136165285D01*
X154879761Y-136165285D02*
X154855952Y-136070047D01*
X154855952Y-136070047D02*
X154832142Y-136022428D01*
X154832142Y-136022428D02*
X154808333Y-135998619D01*
X154808333Y-135998619D02*
X154760714Y-135974809D01*
X160880951Y-141474809D02*
X160595237Y-141474809D01*
X160738094Y-141974809D02*
X160738094Y-141474809D01*
X160428571Y-141974809D02*
X160428571Y-141474809D01*
X160428571Y-141474809D02*
X160238095Y-141474809D01*
X160238095Y-141474809D02*
X160190476Y-141498619D01*
X160190476Y-141498619D02*
X160166666Y-141522428D01*
X160166666Y-141522428D02*
X160142857Y-141570047D01*
X160142857Y-141570047D02*
X160142857Y-141641476D01*
X160142857Y-141641476D02*
X160166666Y-141689095D01*
X160166666Y-141689095D02*
X160190476Y-141712904D01*
X160190476Y-141712904D02*
X160238095Y-141736714D01*
X160238095Y-141736714D02*
X160428571Y-141736714D01*
X159952380Y-141522428D02*
X159928571Y-141498619D01*
X159928571Y-141498619D02*
X159880952Y-141474809D01*
X159880952Y-141474809D02*
X159761904Y-141474809D01*
X159761904Y-141474809D02*
X159714285Y-141498619D01*
X159714285Y-141498619D02*
X159690476Y-141522428D01*
X159690476Y-141522428D02*
X159666666Y-141570047D01*
X159666666Y-141570047D02*
X159666666Y-141617666D01*
X159666666Y-141617666D02*
X159690476Y-141689095D01*
X159690476Y-141689095D02*
X159976190Y-141974809D01*
X159976190Y-141974809D02*
X159666666Y-141974809D01*
X151083333Y-101927190D02*
X151107142Y-101951000D01*
X151107142Y-101951000D02*
X151178571Y-101974809D01*
X151178571Y-101974809D02*
X151226190Y-101974809D01*
X151226190Y-101974809D02*
X151297618Y-101951000D01*
X151297618Y-101951000D02*
X151345237Y-101903380D01*
X151345237Y-101903380D02*
X151369047Y-101855761D01*
X151369047Y-101855761D02*
X151392856Y-101760523D01*
X151392856Y-101760523D02*
X151392856Y-101689095D01*
X151392856Y-101689095D02*
X151369047Y-101593857D01*
X151369047Y-101593857D02*
X151345237Y-101546238D01*
X151345237Y-101546238D02*
X151297618Y-101498619D01*
X151297618Y-101498619D02*
X151226190Y-101474809D01*
X151226190Y-101474809D02*
X151178571Y-101474809D01*
X151178571Y-101474809D02*
X151107142Y-101498619D01*
X151107142Y-101498619D02*
X151083333Y-101522428D01*
X150916666Y-101474809D02*
X150607142Y-101474809D01*
X150607142Y-101474809D02*
X150773809Y-101665285D01*
X150773809Y-101665285D02*
X150702380Y-101665285D01*
X150702380Y-101665285D02*
X150654761Y-101689095D01*
X150654761Y-101689095D02*
X150630952Y-101712904D01*
X150630952Y-101712904D02*
X150607142Y-101760523D01*
X150607142Y-101760523D02*
X150607142Y-101879571D01*
X150607142Y-101879571D02*
X150630952Y-101927190D01*
X150630952Y-101927190D02*
X150654761Y-101951000D01*
X150654761Y-101951000D02*
X150702380Y-101974809D01*
X150702380Y-101974809D02*
X150845237Y-101974809D01*
X150845237Y-101974809D02*
X150892856Y-101951000D01*
X150892856Y-101951000D02*
X150916666Y-101927190D01*
X157380951Y-130424809D02*
X157095237Y-130424809D01*
X157238094Y-130924809D02*
X157238094Y-130424809D01*
X156928571Y-130924809D02*
X156928571Y-130424809D01*
X156928571Y-130424809D02*
X156738095Y-130424809D01*
X156738095Y-130424809D02*
X156690476Y-130448619D01*
X156690476Y-130448619D02*
X156666666Y-130472428D01*
X156666666Y-130472428D02*
X156642857Y-130520047D01*
X156642857Y-130520047D02*
X156642857Y-130591476D01*
X156642857Y-130591476D02*
X156666666Y-130639095D01*
X156666666Y-130639095D02*
X156690476Y-130662904D01*
X156690476Y-130662904D02*
X156738095Y-130686714D01*
X156738095Y-130686714D02*
X156928571Y-130686714D01*
X156166666Y-130924809D02*
X156452380Y-130924809D01*
X156309523Y-130924809D02*
X156309523Y-130424809D01*
X156309523Y-130424809D02*
X156357142Y-130496238D01*
X156357142Y-130496238D02*
X156404761Y-130543857D01*
X156404761Y-130543857D02*
X156452380Y-130567666D01*
X156071428Y-100227190D02*
X156095237Y-100251000D01*
X156095237Y-100251000D02*
X156166666Y-100274809D01*
X156166666Y-100274809D02*
X156214285Y-100274809D01*
X156214285Y-100274809D02*
X156285713Y-100251000D01*
X156285713Y-100251000D02*
X156333332Y-100203380D01*
X156333332Y-100203380D02*
X156357142Y-100155761D01*
X156357142Y-100155761D02*
X156380951Y-100060523D01*
X156380951Y-100060523D02*
X156380951Y-99989095D01*
X156380951Y-99989095D02*
X156357142Y-99893857D01*
X156357142Y-99893857D02*
X156333332Y-99846238D01*
X156333332Y-99846238D02*
X156285713Y-99798619D01*
X156285713Y-99798619D02*
X156214285Y-99774809D01*
X156214285Y-99774809D02*
X156166666Y-99774809D01*
X156166666Y-99774809D02*
X156095237Y-99798619D01*
X156095237Y-99798619D02*
X156071428Y-99822428D01*
X155880951Y-99822428D02*
X155857142Y-99798619D01*
X155857142Y-99798619D02*
X155809523Y-99774809D01*
X155809523Y-99774809D02*
X155690475Y-99774809D01*
X155690475Y-99774809D02*
X155642856Y-99798619D01*
X155642856Y-99798619D02*
X155619047Y-99822428D01*
X155619047Y-99822428D02*
X155595237Y-99870047D01*
X155595237Y-99870047D02*
X155595237Y-99917666D01*
X155595237Y-99917666D02*
X155619047Y-99989095D01*
X155619047Y-99989095D02*
X155904761Y-100274809D01*
X155904761Y-100274809D02*
X155595237Y-100274809D01*
X155428571Y-99774809D02*
X155119047Y-99774809D01*
X155119047Y-99774809D02*
X155285714Y-99965285D01*
X155285714Y-99965285D02*
X155214285Y-99965285D01*
X155214285Y-99965285D02*
X155166666Y-99989095D01*
X155166666Y-99989095D02*
X155142857Y-100012904D01*
X155142857Y-100012904D02*
X155119047Y-100060523D01*
X155119047Y-100060523D02*
X155119047Y-100179571D01*
X155119047Y-100179571D02*
X155142857Y-100227190D01*
X155142857Y-100227190D02*
X155166666Y-100251000D01*
X155166666Y-100251000D02*
X155214285Y-100274809D01*
X155214285Y-100274809D02*
X155357142Y-100274809D01*
X155357142Y-100274809D02*
X155404761Y-100251000D01*
X155404761Y-100251000D02*
X155428571Y-100227190D01*
X148333333Y-134424809D02*
X148499999Y-134186714D01*
X148619047Y-134424809D02*
X148619047Y-133924809D01*
X148619047Y-133924809D02*
X148428571Y-133924809D01*
X148428571Y-133924809D02*
X148380952Y-133948619D01*
X148380952Y-133948619D02*
X148357142Y-133972428D01*
X148357142Y-133972428D02*
X148333333Y-134020047D01*
X148333333Y-134020047D02*
X148333333Y-134091476D01*
X148333333Y-134091476D02*
X148357142Y-134139095D01*
X148357142Y-134139095D02*
X148380952Y-134162904D01*
X148380952Y-134162904D02*
X148428571Y-134186714D01*
X148428571Y-134186714D02*
X148619047Y-134186714D01*
X148166666Y-133924809D02*
X147833333Y-133924809D01*
X147833333Y-133924809D02*
X148047618Y-134424809D01*
X156583333Y-124474809D02*
X156749999Y-124236714D01*
X156869047Y-124474809D02*
X156869047Y-123974809D01*
X156869047Y-123974809D02*
X156678571Y-123974809D01*
X156678571Y-123974809D02*
X156630952Y-123998619D01*
X156630952Y-123998619D02*
X156607142Y-124022428D01*
X156607142Y-124022428D02*
X156583333Y-124070047D01*
X156583333Y-124070047D02*
X156583333Y-124141476D01*
X156583333Y-124141476D02*
X156607142Y-124189095D01*
X156607142Y-124189095D02*
X156630952Y-124212904D01*
X156630952Y-124212904D02*
X156678571Y-124236714D01*
X156678571Y-124236714D02*
X156869047Y-124236714D01*
X156154761Y-124141476D02*
X156154761Y-124474809D01*
X156273809Y-123951000D02*
X156392856Y-124308142D01*
X156392856Y-124308142D02*
X156083333Y-124308142D01*
X153677190Y-89428571D02*
X153701000Y-89404762D01*
X153701000Y-89404762D02*
X153724809Y-89333333D01*
X153724809Y-89333333D02*
X153724809Y-89285714D01*
X153724809Y-89285714D02*
X153701000Y-89214286D01*
X153701000Y-89214286D02*
X153653380Y-89166667D01*
X153653380Y-89166667D02*
X153605761Y-89142857D01*
X153605761Y-89142857D02*
X153510523Y-89119048D01*
X153510523Y-89119048D02*
X153439095Y-89119048D01*
X153439095Y-89119048D02*
X153343857Y-89142857D01*
X153343857Y-89142857D02*
X153296238Y-89166667D01*
X153296238Y-89166667D02*
X153248619Y-89214286D01*
X153248619Y-89214286D02*
X153224809Y-89285714D01*
X153224809Y-89285714D02*
X153224809Y-89333333D01*
X153224809Y-89333333D02*
X153248619Y-89404762D01*
X153248619Y-89404762D02*
X153272428Y-89428571D01*
X153724809Y-89904762D02*
X153724809Y-89619048D01*
X153724809Y-89761905D02*
X153224809Y-89761905D01*
X153224809Y-89761905D02*
X153296238Y-89714286D01*
X153296238Y-89714286D02*
X153343857Y-89666667D01*
X153343857Y-89666667D02*
X153367666Y-89619048D01*
X153224809Y-90071428D02*
X153224809Y-90404761D01*
X153224809Y-90404761D02*
X153724809Y-90190476D01*
X148324809Y-129580952D02*
X147824809Y-129580952D01*
X147824809Y-129580952D02*
X147824809Y-129700000D01*
X147824809Y-129700000D02*
X147848619Y-129771428D01*
X147848619Y-129771428D02*
X147896238Y-129819047D01*
X147896238Y-129819047D02*
X147943857Y-129842857D01*
X147943857Y-129842857D02*
X148039095Y-129866666D01*
X148039095Y-129866666D02*
X148110523Y-129866666D01*
X148110523Y-129866666D02*
X148205761Y-129842857D01*
X148205761Y-129842857D02*
X148253380Y-129819047D01*
X148253380Y-129819047D02*
X148301000Y-129771428D01*
X148301000Y-129771428D02*
X148324809Y-129700000D01*
X148324809Y-129700000D02*
X148324809Y-129580952D01*
X148324809Y-130342857D02*
X148324809Y-130057143D01*
X148324809Y-130200000D02*
X147824809Y-130200000D01*
X147824809Y-130200000D02*
X147896238Y-130152381D01*
X147896238Y-130152381D02*
X147943857Y-130104762D01*
X147943857Y-130104762D02*
X147967666Y-130057143D01*
X148880951Y-131474809D02*
X148595237Y-131474809D01*
X148738094Y-131974809D02*
X148738094Y-131474809D01*
X148428571Y-131974809D02*
X148428571Y-131474809D01*
X148428571Y-131474809D02*
X148238095Y-131474809D01*
X148238095Y-131474809D02*
X148190476Y-131498619D01*
X148190476Y-131498619D02*
X148166666Y-131522428D01*
X148166666Y-131522428D02*
X148142857Y-131570047D01*
X148142857Y-131570047D02*
X148142857Y-131641476D01*
X148142857Y-131641476D02*
X148166666Y-131689095D01*
X148166666Y-131689095D02*
X148190476Y-131712904D01*
X148190476Y-131712904D02*
X148238095Y-131736714D01*
X148238095Y-131736714D02*
X148428571Y-131736714D01*
X147976190Y-131474809D02*
X147666666Y-131474809D01*
X147666666Y-131474809D02*
X147833333Y-131665285D01*
X147833333Y-131665285D02*
X147761904Y-131665285D01*
X147761904Y-131665285D02*
X147714285Y-131689095D01*
X147714285Y-131689095D02*
X147690476Y-131712904D01*
X147690476Y-131712904D02*
X147666666Y-131760523D01*
X147666666Y-131760523D02*
X147666666Y-131879571D01*
X147666666Y-131879571D02*
X147690476Y-131927190D01*
X147690476Y-131927190D02*
X147714285Y-131951000D01*
X147714285Y-131951000D02*
X147761904Y-131974809D01*
X147761904Y-131974809D02*
X147904761Y-131974809D01*
X147904761Y-131974809D02*
X147952380Y-131951000D01*
X147952380Y-131951000D02*
X147976190Y-131927190D01*
D11*
X149433333Y-82954819D02*
X149433333Y-83669104D01*
X149433333Y-83669104D02*
X149480952Y-83811961D01*
X149480952Y-83811961D02*
X149576190Y-83907200D01*
X149576190Y-83907200D02*
X149719047Y-83954819D01*
X149719047Y-83954819D02*
X149814285Y-83954819D01*
X148814285Y-83383390D02*
X148909523Y-83335771D01*
X148909523Y-83335771D02*
X148957142Y-83288152D01*
X148957142Y-83288152D02*
X149004761Y-83192914D01*
X149004761Y-83192914D02*
X149004761Y-83145295D01*
X149004761Y-83145295D02*
X148957142Y-83050057D01*
X148957142Y-83050057D02*
X148909523Y-83002438D01*
X148909523Y-83002438D02*
X148814285Y-82954819D01*
X148814285Y-82954819D02*
X148623809Y-82954819D01*
X148623809Y-82954819D02*
X148528571Y-83002438D01*
X148528571Y-83002438D02*
X148480952Y-83050057D01*
X148480952Y-83050057D02*
X148433333Y-83145295D01*
X148433333Y-83145295D02*
X148433333Y-83192914D01*
X148433333Y-83192914D02*
X148480952Y-83288152D01*
X148480952Y-83288152D02*
X148528571Y-83335771D01*
X148528571Y-83335771D02*
X148623809Y-83383390D01*
X148623809Y-83383390D02*
X148814285Y-83383390D01*
X148814285Y-83383390D02*
X148909523Y-83431009D01*
X148909523Y-83431009D02*
X148957142Y-83478628D01*
X148957142Y-83478628D02*
X149004761Y-83573866D01*
X149004761Y-83573866D02*
X149004761Y-83764342D01*
X149004761Y-83764342D02*
X148957142Y-83859580D01*
X148957142Y-83859580D02*
X148909523Y-83907200D01*
X148909523Y-83907200D02*
X148814285Y-83954819D01*
X148814285Y-83954819D02*
X148623809Y-83954819D01*
X148623809Y-83954819D02*
X148528571Y-83907200D01*
X148528571Y-83907200D02*
X148480952Y-83859580D01*
X148480952Y-83859580D02*
X148433333Y-83764342D01*
X148433333Y-83764342D02*
X148433333Y-83573866D01*
X148433333Y-83573866D02*
X148480952Y-83478628D01*
X148480952Y-83478628D02*
X148528571Y-83431009D01*
X148528571Y-83431009D02*
X148623809Y-83383390D01*
D12*
X159977190Y-73478571D02*
X160001000Y-73454762D01*
X160001000Y-73454762D02*
X160024809Y-73383333D01*
X160024809Y-73383333D02*
X160024809Y-73335714D01*
X160024809Y-73335714D02*
X160001000Y-73264286D01*
X160001000Y-73264286D02*
X159953380Y-73216667D01*
X159953380Y-73216667D02*
X159905761Y-73192857D01*
X159905761Y-73192857D02*
X159810523Y-73169048D01*
X159810523Y-73169048D02*
X159739095Y-73169048D01*
X159739095Y-73169048D02*
X159643857Y-73192857D01*
X159643857Y-73192857D02*
X159596238Y-73216667D01*
X159596238Y-73216667D02*
X159548619Y-73264286D01*
X159548619Y-73264286D02*
X159524809Y-73335714D01*
X159524809Y-73335714D02*
X159524809Y-73383333D01*
X159524809Y-73383333D02*
X159548619Y-73454762D01*
X159548619Y-73454762D02*
X159572428Y-73478571D01*
X160024809Y-73954762D02*
X160024809Y-73669048D01*
X160024809Y-73811905D02*
X159524809Y-73811905D01*
X159524809Y-73811905D02*
X159596238Y-73764286D01*
X159596238Y-73764286D02*
X159643857Y-73716667D01*
X159643857Y-73716667D02*
X159667666Y-73669048D01*
X159524809Y-74121428D02*
X159524809Y-74430952D01*
X159524809Y-74430952D02*
X159715285Y-74264285D01*
X159715285Y-74264285D02*
X159715285Y-74335714D01*
X159715285Y-74335714D02*
X159739095Y-74383333D01*
X159739095Y-74383333D02*
X159762904Y-74407142D01*
X159762904Y-74407142D02*
X159810523Y-74430952D01*
X159810523Y-74430952D02*
X159929571Y-74430952D01*
X159929571Y-74430952D02*
X159977190Y-74407142D01*
X159977190Y-74407142D02*
X160001000Y-74383333D01*
X160001000Y-74383333D02*
X160024809Y-74335714D01*
X160024809Y-74335714D02*
X160024809Y-74192857D01*
X160024809Y-74192857D02*
X160001000Y-74145238D01*
X160001000Y-74145238D02*
X159977190Y-74121428D01*
X152927190Y-98678571D02*
X152951000Y-98654762D01*
X152951000Y-98654762D02*
X152974809Y-98583333D01*
X152974809Y-98583333D02*
X152974809Y-98535714D01*
X152974809Y-98535714D02*
X152951000Y-98464286D01*
X152951000Y-98464286D02*
X152903380Y-98416667D01*
X152903380Y-98416667D02*
X152855761Y-98392857D01*
X152855761Y-98392857D02*
X152760523Y-98369048D01*
X152760523Y-98369048D02*
X152689095Y-98369048D01*
X152689095Y-98369048D02*
X152593857Y-98392857D01*
X152593857Y-98392857D02*
X152546238Y-98416667D01*
X152546238Y-98416667D02*
X152498619Y-98464286D01*
X152498619Y-98464286D02*
X152474809Y-98535714D01*
X152474809Y-98535714D02*
X152474809Y-98583333D01*
X152474809Y-98583333D02*
X152498619Y-98654762D01*
X152498619Y-98654762D02*
X152522428Y-98678571D01*
X152974809Y-99154762D02*
X152974809Y-98869048D01*
X152974809Y-99011905D02*
X152474809Y-99011905D01*
X152474809Y-99011905D02*
X152546238Y-98964286D01*
X152546238Y-98964286D02*
X152593857Y-98916667D01*
X152593857Y-98916667D02*
X152617666Y-98869048D01*
X152474809Y-99583333D02*
X152474809Y-99488095D01*
X152474809Y-99488095D02*
X152498619Y-99440476D01*
X152498619Y-99440476D02*
X152522428Y-99416666D01*
X152522428Y-99416666D02*
X152593857Y-99369047D01*
X152593857Y-99369047D02*
X152689095Y-99345238D01*
X152689095Y-99345238D02*
X152879571Y-99345238D01*
X152879571Y-99345238D02*
X152927190Y-99369047D01*
X152927190Y-99369047D02*
X152951000Y-99392857D01*
X152951000Y-99392857D02*
X152974809Y-99440476D01*
X152974809Y-99440476D02*
X152974809Y-99535714D01*
X152974809Y-99535714D02*
X152951000Y-99583333D01*
X152951000Y-99583333D02*
X152927190Y-99607142D01*
X152927190Y-99607142D02*
X152879571Y-99630952D01*
X152879571Y-99630952D02*
X152760523Y-99630952D01*
X152760523Y-99630952D02*
X152712904Y-99607142D01*
X152712904Y-99607142D02*
X152689095Y-99583333D01*
X152689095Y-99583333D02*
X152665285Y-99535714D01*
X152665285Y-99535714D02*
X152665285Y-99440476D01*
X152665285Y-99440476D02*
X152689095Y-99392857D01*
X152689095Y-99392857D02*
X152712904Y-99369047D01*
X152712904Y-99369047D02*
X152760523Y-99345238D01*
D11*
X149407200Y-96366667D02*
X149454819Y-96509524D01*
X149454819Y-96509524D02*
X149454819Y-96747619D01*
X149454819Y-96747619D02*
X149407200Y-96842857D01*
X149407200Y-96842857D02*
X149359580Y-96890476D01*
X149359580Y-96890476D02*
X149264342Y-96938095D01*
X149264342Y-96938095D02*
X149169104Y-96938095D01*
X149169104Y-96938095D02*
X149073866Y-96890476D01*
X149073866Y-96890476D02*
X149026247Y-96842857D01*
X149026247Y-96842857D02*
X148978628Y-96747619D01*
X148978628Y-96747619D02*
X148931009Y-96557143D01*
X148931009Y-96557143D02*
X148883390Y-96461905D01*
X148883390Y-96461905D02*
X148835771Y-96414286D01*
X148835771Y-96414286D02*
X148740533Y-96366667D01*
X148740533Y-96366667D02*
X148645295Y-96366667D01*
X148645295Y-96366667D02*
X148550057Y-96414286D01*
X148550057Y-96414286D02*
X148502438Y-96461905D01*
X148502438Y-96461905D02*
X148454819Y-96557143D01*
X148454819Y-96557143D02*
X148454819Y-96795238D01*
X148454819Y-96795238D02*
X148502438Y-96938095D01*
X148454819Y-97271429D02*
X149454819Y-97509524D01*
X149454819Y-97509524D02*
X148740533Y-97700000D01*
X148740533Y-97700000D02*
X149454819Y-97890476D01*
X149454819Y-97890476D02*
X148454819Y-98128572D01*
X148454819Y-98938095D02*
X148454819Y-98747619D01*
X148454819Y-98747619D02*
X148502438Y-98652381D01*
X148502438Y-98652381D02*
X148550057Y-98604762D01*
X148550057Y-98604762D02*
X148692914Y-98509524D01*
X148692914Y-98509524D02*
X148883390Y-98461905D01*
X148883390Y-98461905D02*
X149264342Y-98461905D01*
X149264342Y-98461905D02*
X149359580Y-98509524D01*
X149359580Y-98509524D02*
X149407200Y-98557143D01*
X149407200Y-98557143D02*
X149454819Y-98652381D01*
X149454819Y-98652381D02*
X149454819Y-98842857D01*
X149454819Y-98842857D02*
X149407200Y-98938095D01*
X149407200Y-98938095D02*
X149359580Y-98985714D01*
X149359580Y-98985714D02*
X149264342Y-99033333D01*
X149264342Y-99033333D02*
X149026247Y-99033333D01*
X149026247Y-99033333D02*
X148931009Y-98985714D01*
X148931009Y-98985714D02*
X148883390Y-98938095D01*
X148883390Y-98938095D02*
X148835771Y-98842857D01*
X148835771Y-98842857D02*
X148835771Y-98652381D01*
X148835771Y-98652381D02*
X148883390Y-98557143D01*
X148883390Y-98557143D02*
X148931009Y-98509524D01*
X148931009Y-98509524D02*
X149026247Y-98461905D01*
D12*
X154784809Y-117616666D02*
X154784809Y-117378571D01*
X154784809Y-117378571D02*
X154284809Y-117378571D01*
X154784809Y-118045238D02*
X154784809Y-117759524D01*
X154784809Y-117902381D02*
X154284809Y-117902381D01*
X154284809Y-117902381D02*
X154356238Y-117854762D01*
X154356238Y-117854762D02*
X154403857Y-117807143D01*
X154403857Y-117807143D02*
X154427666Y-117759524D01*
X156096428Y-101727190D02*
X156120237Y-101751000D01*
X156120237Y-101751000D02*
X156191666Y-101774809D01*
X156191666Y-101774809D02*
X156239285Y-101774809D01*
X156239285Y-101774809D02*
X156310713Y-101751000D01*
X156310713Y-101751000D02*
X156358332Y-101703380D01*
X156358332Y-101703380D02*
X156382142Y-101655761D01*
X156382142Y-101655761D02*
X156405951Y-101560523D01*
X156405951Y-101560523D02*
X156405951Y-101489095D01*
X156405951Y-101489095D02*
X156382142Y-101393857D01*
X156382142Y-101393857D02*
X156358332Y-101346238D01*
X156358332Y-101346238D02*
X156310713Y-101298619D01*
X156310713Y-101298619D02*
X156239285Y-101274809D01*
X156239285Y-101274809D02*
X156191666Y-101274809D01*
X156191666Y-101274809D02*
X156120237Y-101298619D01*
X156120237Y-101298619D02*
X156096428Y-101322428D01*
X155905951Y-101322428D02*
X155882142Y-101298619D01*
X155882142Y-101298619D02*
X155834523Y-101274809D01*
X155834523Y-101274809D02*
X155715475Y-101274809D01*
X155715475Y-101274809D02*
X155667856Y-101298619D01*
X155667856Y-101298619D02*
X155644047Y-101322428D01*
X155644047Y-101322428D02*
X155620237Y-101370047D01*
X155620237Y-101370047D02*
X155620237Y-101417666D01*
X155620237Y-101417666D02*
X155644047Y-101489095D01*
X155644047Y-101489095D02*
X155929761Y-101774809D01*
X155929761Y-101774809D02*
X155620237Y-101774809D01*
X155144047Y-101774809D02*
X155429761Y-101774809D01*
X155286904Y-101774809D02*
X155286904Y-101274809D01*
X155286904Y-101274809D02*
X155334523Y-101346238D01*
X155334523Y-101346238D02*
X155382142Y-101393857D01*
X155382142Y-101393857D02*
X155429761Y-101417666D01*
D11*
X159907200Y-88366667D02*
X159954819Y-88509524D01*
X159954819Y-88509524D02*
X159954819Y-88747619D01*
X159954819Y-88747619D02*
X159907200Y-88842857D01*
X159907200Y-88842857D02*
X159859580Y-88890476D01*
X159859580Y-88890476D02*
X159764342Y-88938095D01*
X159764342Y-88938095D02*
X159669104Y-88938095D01*
X159669104Y-88938095D02*
X159573866Y-88890476D01*
X159573866Y-88890476D02*
X159526247Y-88842857D01*
X159526247Y-88842857D02*
X159478628Y-88747619D01*
X159478628Y-88747619D02*
X159431009Y-88557143D01*
X159431009Y-88557143D02*
X159383390Y-88461905D01*
X159383390Y-88461905D02*
X159335771Y-88414286D01*
X159335771Y-88414286D02*
X159240533Y-88366667D01*
X159240533Y-88366667D02*
X159145295Y-88366667D01*
X159145295Y-88366667D02*
X159050057Y-88414286D01*
X159050057Y-88414286D02*
X159002438Y-88461905D01*
X159002438Y-88461905D02*
X158954819Y-88557143D01*
X158954819Y-88557143D02*
X158954819Y-88795238D01*
X158954819Y-88795238D02*
X159002438Y-88938095D01*
X158954819Y-89271429D02*
X159954819Y-89509524D01*
X159954819Y-89509524D02*
X159240533Y-89700000D01*
X159240533Y-89700000D02*
X159954819Y-89890476D01*
X159954819Y-89890476D02*
X158954819Y-90128572D01*
X158954819Y-90414286D02*
X158954819Y-91033333D01*
X158954819Y-91033333D02*
X159335771Y-90700000D01*
X159335771Y-90700000D02*
X159335771Y-90842857D01*
X159335771Y-90842857D02*
X159383390Y-90938095D01*
X159383390Y-90938095D02*
X159431009Y-90985714D01*
X159431009Y-90985714D02*
X159526247Y-91033333D01*
X159526247Y-91033333D02*
X159764342Y-91033333D01*
X159764342Y-91033333D02*
X159859580Y-90985714D01*
X159859580Y-90985714D02*
X159907200Y-90938095D01*
X159907200Y-90938095D02*
X159954819Y-90842857D01*
X159954819Y-90842857D02*
X159954819Y-90557143D01*
X159954819Y-90557143D02*
X159907200Y-90461905D01*
X159907200Y-90461905D02*
X159859580Y-90414286D01*
D12*
X159677190Y-102878571D02*
X159701000Y-102854762D01*
X159701000Y-102854762D02*
X159724809Y-102783333D01*
X159724809Y-102783333D02*
X159724809Y-102735714D01*
X159724809Y-102735714D02*
X159701000Y-102664286D01*
X159701000Y-102664286D02*
X159653380Y-102616667D01*
X159653380Y-102616667D02*
X159605761Y-102592857D01*
X159605761Y-102592857D02*
X159510523Y-102569048D01*
X159510523Y-102569048D02*
X159439095Y-102569048D01*
X159439095Y-102569048D02*
X159343857Y-102592857D01*
X159343857Y-102592857D02*
X159296238Y-102616667D01*
X159296238Y-102616667D02*
X159248619Y-102664286D01*
X159248619Y-102664286D02*
X159224809Y-102735714D01*
X159224809Y-102735714D02*
X159224809Y-102783333D01*
X159224809Y-102783333D02*
X159248619Y-102854762D01*
X159248619Y-102854762D02*
X159272428Y-102878571D01*
X159272428Y-103069048D02*
X159248619Y-103092857D01*
X159248619Y-103092857D02*
X159224809Y-103140476D01*
X159224809Y-103140476D02*
X159224809Y-103259524D01*
X159224809Y-103259524D02*
X159248619Y-103307143D01*
X159248619Y-103307143D02*
X159272428Y-103330952D01*
X159272428Y-103330952D02*
X159320047Y-103354762D01*
X159320047Y-103354762D02*
X159367666Y-103354762D01*
X159367666Y-103354762D02*
X159439095Y-103330952D01*
X159439095Y-103330952D02*
X159724809Y-103045238D01*
X159724809Y-103045238D02*
X159724809Y-103354762D01*
X159224809Y-103807142D02*
X159224809Y-103569047D01*
X159224809Y-103569047D02*
X159462904Y-103545238D01*
X159462904Y-103545238D02*
X159439095Y-103569047D01*
X159439095Y-103569047D02*
X159415285Y-103616666D01*
X159415285Y-103616666D02*
X159415285Y-103735714D01*
X159415285Y-103735714D02*
X159439095Y-103783333D01*
X159439095Y-103783333D02*
X159462904Y-103807142D01*
X159462904Y-103807142D02*
X159510523Y-103830952D01*
X159510523Y-103830952D02*
X159629571Y-103830952D01*
X159629571Y-103830952D02*
X159677190Y-103807142D01*
X159677190Y-103807142D02*
X159701000Y-103783333D01*
X159701000Y-103783333D02*
X159724809Y-103735714D01*
X159724809Y-103735714D02*
X159724809Y-103616666D01*
X159724809Y-103616666D02*
X159701000Y-103569047D01*
X159701000Y-103569047D02*
X159677190Y-103545238D01*
D11*
X159907200Y-77866667D02*
X159954819Y-78009524D01*
X159954819Y-78009524D02*
X159954819Y-78247619D01*
X159954819Y-78247619D02*
X159907200Y-78342857D01*
X159907200Y-78342857D02*
X159859580Y-78390476D01*
X159859580Y-78390476D02*
X159764342Y-78438095D01*
X159764342Y-78438095D02*
X159669104Y-78438095D01*
X159669104Y-78438095D02*
X159573866Y-78390476D01*
X159573866Y-78390476D02*
X159526247Y-78342857D01*
X159526247Y-78342857D02*
X159478628Y-78247619D01*
X159478628Y-78247619D02*
X159431009Y-78057143D01*
X159431009Y-78057143D02*
X159383390Y-77961905D01*
X159383390Y-77961905D02*
X159335771Y-77914286D01*
X159335771Y-77914286D02*
X159240533Y-77866667D01*
X159240533Y-77866667D02*
X159145295Y-77866667D01*
X159145295Y-77866667D02*
X159050057Y-77914286D01*
X159050057Y-77914286D02*
X159002438Y-77961905D01*
X159002438Y-77961905D02*
X158954819Y-78057143D01*
X158954819Y-78057143D02*
X158954819Y-78295238D01*
X158954819Y-78295238D02*
X159002438Y-78438095D01*
X158954819Y-78771429D02*
X159954819Y-79009524D01*
X159954819Y-79009524D02*
X159240533Y-79200000D01*
X159240533Y-79200000D02*
X159954819Y-79390476D01*
X159954819Y-79390476D02*
X158954819Y-79628572D01*
X158954819Y-80485714D02*
X158954819Y-80009524D01*
X158954819Y-80009524D02*
X159431009Y-79961905D01*
X159431009Y-79961905D02*
X159383390Y-80009524D01*
X159383390Y-80009524D02*
X159335771Y-80104762D01*
X159335771Y-80104762D02*
X159335771Y-80342857D01*
X159335771Y-80342857D02*
X159383390Y-80438095D01*
X159383390Y-80438095D02*
X159431009Y-80485714D01*
X159431009Y-80485714D02*
X159526247Y-80533333D01*
X159526247Y-80533333D02*
X159764342Y-80533333D01*
X159764342Y-80533333D02*
X159859580Y-80485714D01*
X159859580Y-80485714D02*
X159907200Y-80438095D01*
X159907200Y-80438095D02*
X159954819Y-80342857D01*
X159954819Y-80342857D02*
X159954819Y-80104762D01*
X159954819Y-80104762D02*
X159907200Y-80009524D01*
X159907200Y-80009524D02*
X159859580Y-79961905D01*
D12*
X149221428Y-121527190D02*
X149245237Y-121551000D01*
X149245237Y-121551000D02*
X149316666Y-121574809D01*
X149316666Y-121574809D02*
X149364285Y-121574809D01*
X149364285Y-121574809D02*
X149435713Y-121551000D01*
X149435713Y-121551000D02*
X149483332Y-121503380D01*
X149483332Y-121503380D02*
X149507142Y-121455761D01*
X149507142Y-121455761D02*
X149530951Y-121360523D01*
X149530951Y-121360523D02*
X149530951Y-121289095D01*
X149530951Y-121289095D02*
X149507142Y-121193857D01*
X149507142Y-121193857D02*
X149483332Y-121146238D01*
X149483332Y-121146238D02*
X149435713Y-121098619D01*
X149435713Y-121098619D02*
X149364285Y-121074809D01*
X149364285Y-121074809D02*
X149316666Y-121074809D01*
X149316666Y-121074809D02*
X149245237Y-121098619D01*
X149245237Y-121098619D02*
X149221428Y-121122428D01*
X149054761Y-121074809D02*
X148745237Y-121074809D01*
X148745237Y-121074809D02*
X148911904Y-121265285D01*
X148911904Y-121265285D02*
X148840475Y-121265285D01*
X148840475Y-121265285D02*
X148792856Y-121289095D01*
X148792856Y-121289095D02*
X148769047Y-121312904D01*
X148769047Y-121312904D02*
X148745237Y-121360523D01*
X148745237Y-121360523D02*
X148745237Y-121479571D01*
X148745237Y-121479571D02*
X148769047Y-121527190D01*
X148769047Y-121527190D02*
X148792856Y-121551000D01*
X148792856Y-121551000D02*
X148840475Y-121574809D01*
X148840475Y-121574809D02*
X148983332Y-121574809D01*
X148983332Y-121574809D02*
X149030951Y-121551000D01*
X149030951Y-121551000D02*
X149054761Y-121527190D01*
X148316666Y-121074809D02*
X148411904Y-121074809D01*
X148411904Y-121074809D02*
X148459523Y-121098619D01*
X148459523Y-121098619D02*
X148483333Y-121122428D01*
X148483333Y-121122428D02*
X148530952Y-121193857D01*
X148530952Y-121193857D02*
X148554761Y-121289095D01*
X148554761Y-121289095D02*
X148554761Y-121479571D01*
X148554761Y-121479571D02*
X148530952Y-121527190D01*
X148530952Y-121527190D02*
X148507142Y-121551000D01*
X148507142Y-121551000D02*
X148459523Y-121574809D01*
X148459523Y-121574809D02*
X148364285Y-121574809D01*
X148364285Y-121574809D02*
X148316666Y-121551000D01*
X148316666Y-121551000D02*
X148292857Y-121527190D01*
X148292857Y-121527190D02*
X148269047Y-121479571D01*
X148269047Y-121479571D02*
X148269047Y-121360523D01*
X148269047Y-121360523D02*
X148292857Y-121312904D01*
X148292857Y-121312904D02*
X148316666Y-121289095D01*
X148316666Y-121289095D02*
X148364285Y-121265285D01*
X148364285Y-121265285D02*
X148459523Y-121265285D01*
X148459523Y-121265285D02*
X148507142Y-121289095D01*
X148507142Y-121289095D02*
X148530952Y-121312904D01*
X148530952Y-121312904D02*
X148554761Y-121360523D01*
X149281916Y-139522809D02*
X149258107Y-139499000D01*
X149258107Y-139499000D02*
X149186678Y-139475190D01*
X149186678Y-139475190D02*
X149139059Y-139475190D01*
X149139059Y-139475190D02*
X149067631Y-139499000D01*
X149067631Y-139499000D02*
X149020012Y-139546619D01*
X149020012Y-139546619D02*
X148996202Y-139594238D01*
X148996202Y-139594238D02*
X148972393Y-139689476D01*
X148972393Y-139689476D02*
X148972393Y-139760904D01*
X148972393Y-139760904D02*
X148996202Y-139856142D01*
X148996202Y-139856142D02*
X149020012Y-139903761D01*
X149020012Y-139903761D02*
X149067631Y-139951380D01*
X149067631Y-139951380D02*
X149139059Y-139975190D01*
X149139059Y-139975190D02*
X149186678Y-139975190D01*
X149186678Y-139975190D02*
X149258107Y-139951380D01*
X149258107Y-139951380D02*
X149281916Y-139927571D01*
X149781916Y-139475190D02*
X149615250Y-139713285D01*
X149496202Y-139475190D02*
X149496202Y-139975190D01*
X149496202Y-139975190D02*
X149686678Y-139975190D01*
X149686678Y-139975190D02*
X149734297Y-139951380D01*
X149734297Y-139951380D02*
X149758107Y-139927571D01*
X149758107Y-139927571D02*
X149781916Y-139879952D01*
X149781916Y-139879952D02*
X149781916Y-139808523D01*
X149781916Y-139808523D02*
X149758107Y-139760904D01*
X149758107Y-139760904D02*
X149734297Y-139737095D01*
X149734297Y-139737095D02*
X149686678Y-139713285D01*
X149686678Y-139713285D02*
X149496202Y-139713285D01*
X150258107Y-139475190D02*
X149972393Y-139475190D01*
X150115250Y-139475190D02*
X150115250Y-139975190D01*
X150115250Y-139975190D02*
X150067631Y-139903761D01*
X150067631Y-139903761D02*
X150020012Y-139856142D01*
X150020012Y-139856142D02*
X149972393Y-139832333D01*
D11*
X148115249Y-141404819D02*
X148115249Y-141642914D01*
X148353344Y-141547676D02*
X148115249Y-141642914D01*
X148115249Y-141642914D02*
X147877154Y-141547676D01*
X148258106Y-141833390D02*
X148115249Y-141642914D01*
X148115249Y-141642914D02*
X147972392Y-141833390D01*
D12*
X150608333Y-117867190D02*
X150632142Y-117891000D01*
X150632142Y-117891000D02*
X150703571Y-117914809D01*
X150703571Y-117914809D02*
X150751190Y-117914809D01*
X150751190Y-117914809D02*
X150822618Y-117891000D01*
X150822618Y-117891000D02*
X150870237Y-117843380D01*
X150870237Y-117843380D02*
X150894047Y-117795761D01*
X150894047Y-117795761D02*
X150917856Y-117700523D01*
X150917856Y-117700523D02*
X150917856Y-117629095D01*
X150917856Y-117629095D02*
X150894047Y-117533857D01*
X150894047Y-117533857D02*
X150870237Y-117486238D01*
X150870237Y-117486238D02*
X150822618Y-117438619D01*
X150822618Y-117438619D02*
X150751190Y-117414809D01*
X150751190Y-117414809D02*
X150703571Y-117414809D01*
X150703571Y-117414809D02*
X150632142Y-117438619D01*
X150632142Y-117438619D02*
X150608333Y-117462428D01*
X150155952Y-117414809D02*
X150394047Y-117414809D01*
X150394047Y-117414809D02*
X150417856Y-117652904D01*
X150417856Y-117652904D02*
X150394047Y-117629095D01*
X150394047Y-117629095D02*
X150346428Y-117605285D01*
X150346428Y-117605285D02*
X150227380Y-117605285D01*
X150227380Y-117605285D02*
X150179761Y-117629095D01*
X150179761Y-117629095D02*
X150155952Y-117652904D01*
X150155952Y-117652904D02*
X150132142Y-117700523D01*
X150132142Y-117700523D02*
X150132142Y-117819571D01*
X150132142Y-117819571D02*
X150155952Y-117867190D01*
X150155952Y-117867190D02*
X150179761Y-117891000D01*
X150179761Y-117891000D02*
X150227380Y-117914809D01*
X150227380Y-117914809D02*
X150346428Y-117914809D01*
X150346428Y-117914809D02*
X150394047Y-117891000D01*
X150394047Y-117891000D02*
X150417856Y-117867190D01*
X158627190Y-115878571D02*
X158651000Y-115854762D01*
X158651000Y-115854762D02*
X158674809Y-115783333D01*
X158674809Y-115783333D02*
X158674809Y-115735714D01*
X158674809Y-115735714D02*
X158651000Y-115664286D01*
X158651000Y-115664286D02*
X158603380Y-115616667D01*
X158603380Y-115616667D02*
X158555761Y-115592857D01*
X158555761Y-115592857D02*
X158460523Y-115569048D01*
X158460523Y-115569048D02*
X158389095Y-115569048D01*
X158389095Y-115569048D02*
X158293857Y-115592857D01*
X158293857Y-115592857D02*
X158246238Y-115616667D01*
X158246238Y-115616667D02*
X158198619Y-115664286D01*
X158198619Y-115664286D02*
X158174809Y-115735714D01*
X158174809Y-115735714D02*
X158174809Y-115783333D01*
X158174809Y-115783333D02*
X158198619Y-115854762D01*
X158198619Y-115854762D02*
X158222428Y-115878571D01*
X158222428Y-116069048D02*
X158198619Y-116092857D01*
X158198619Y-116092857D02*
X158174809Y-116140476D01*
X158174809Y-116140476D02*
X158174809Y-116259524D01*
X158174809Y-116259524D02*
X158198619Y-116307143D01*
X158198619Y-116307143D02*
X158222428Y-116330952D01*
X158222428Y-116330952D02*
X158270047Y-116354762D01*
X158270047Y-116354762D02*
X158317666Y-116354762D01*
X158317666Y-116354762D02*
X158389095Y-116330952D01*
X158389095Y-116330952D02*
X158674809Y-116045238D01*
X158674809Y-116045238D02*
X158674809Y-116354762D01*
X158222428Y-116545238D02*
X158198619Y-116569047D01*
X158198619Y-116569047D02*
X158174809Y-116616666D01*
X158174809Y-116616666D02*
X158174809Y-116735714D01*
X158174809Y-116735714D02*
X158198619Y-116783333D01*
X158198619Y-116783333D02*
X158222428Y-116807142D01*
X158222428Y-116807142D02*
X158270047Y-116830952D01*
X158270047Y-116830952D02*
X158317666Y-116830952D01*
X158317666Y-116830952D02*
X158389095Y-116807142D01*
X158389095Y-116807142D02*
X158674809Y-116521428D01*
X158674809Y-116521428D02*
X158674809Y-116830952D01*
X152833333Y-138799809D02*
X152999999Y-138561714D01*
X153119047Y-138799809D02*
X153119047Y-138299809D01*
X153119047Y-138299809D02*
X152928571Y-138299809D01*
X152928571Y-138299809D02*
X152880952Y-138323619D01*
X152880952Y-138323619D02*
X152857142Y-138347428D01*
X152857142Y-138347428D02*
X152833333Y-138395047D01*
X152833333Y-138395047D02*
X152833333Y-138466476D01*
X152833333Y-138466476D02*
X152857142Y-138514095D01*
X152857142Y-138514095D02*
X152880952Y-138537904D01*
X152880952Y-138537904D02*
X152928571Y-138561714D01*
X152928571Y-138561714D02*
X153119047Y-138561714D01*
X152380952Y-138299809D02*
X152619047Y-138299809D01*
X152619047Y-138299809D02*
X152642856Y-138537904D01*
X152642856Y-138537904D02*
X152619047Y-138514095D01*
X152619047Y-138514095D02*
X152571428Y-138490285D01*
X152571428Y-138490285D02*
X152452380Y-138490285D01*
X152452380Y-138490285D02*
X152404761Y-138514095D01*
X152404761Y-138514095D02*
X152380952Y-138537904D01*
X152380952Y-138537904D02*
X152357142Y-138585523D01*
X152357142Y-138585523D02*
X152357142Y-138704571D01*
X152357142Y-138704571D02*
X152380952Y-138752190D01*
X152380952Y-138752190D02*
X152404761Y-138776000D01*
X152404761Y-138776000D02*
X152452380Y-138799809D01*
X152452380Y-138799809D02*
X152571428Y-138799809D01*
X152571428Y-138799809D02*
X152619047Y-138776000D01*
X152619047Y-138776000D02*
X152642856Y-138752190D01*
X154821428Y-138524809D02*
X154988094Y-138286714D01*
X155107142Y-138524809D02*
X155107142Y-138024809D01*
X155107142Y-138024809D02*
X154916666Y-138024809D01*
X154916666Y-138024809D02*
X154869047Y-138048619D01*
X154869047Y-138048619D02*
X154845237Y-138072428D01*
X154845237Y-138072428D02*
X154821428Y-138120047D01*
X154821428Y-138120047D02*
X154821428Y-138191476D01*
X154821428Y-138191476D02*
X154845237Y-138239095D01*
X154845237Y-138239095D02*
X154869047Y-138262904D01*
X154869047Y-138262904D02*
X154916666Y-138286714D01*
X154916666Y-138286714D02*
X155107142Y-138286714D01*
X154345237Y-138524809D02*
X154630951Y-138524809D01*
X154488094Y-138524809D02*
X154488094Y-138024809D01*
X154488094Y-138024809D02*
X154535713Y-138096238D01*
X154535713Y-138096238D02*
X154583332Y-138143857D01*
X154583332Y-138143857D02*
X154630951Y-138167666D01*
X154059523Y-138239095D02*
X154107142Y-138215285D01*
X154107142Y-138215285D02*
X154130952Y-138191476D01*
X154130952Y-138191476D02*
X154154761Y-138143857D01*
X154154761Y-138143857D02*
X154154761Y-138120047D01*
X154154761Y-138120047D02*
X154130952Y-138072428D01*
X154130952Y-138072428D02*
X154107142Y-138048619D01*
X154107142Y-138048619D02*
X154059523Y-138024809D01*
X154059523Y-138024809D02*
X153964285Y-138024809D01*
X153964285Y-138024809D02*
X153916666Y-138048619D01*
X153916666Y-138048619D02*
X153892857Y-138072428D01*
X153892857Y-138072428D02*
X153869047Y-138120047D01*
X153869047Y-138120047D02*
X153869047Y-138143857D01*
X153869047Y-138143857D02*
X153892857Y-138191476D01*
X153892857Y-138191476D02*
X153916666Y-138215285D01*
X153916666Y-138215285D02*
X153964285Y-138239095D01*
X153964285Y-138239095D02*
X154059523Y-138239095D01*
X154059523Y-138239095D02*
X154107142Y-138262904D01*
X154107142Y-138262904D02*
X154130952Y-138286714D01*
X154130952Y-138286714D02*
X154154761Y-138334333D01*
X154154761Y-138334333D02*
X154154761Y-138429571D01*
X154154761Y-138429571D02*
X154130952Y-138477190D01*
X154130952Y-138477190D02*
X154107142Y-138501000D01*
X154107142Y-138501000D02*
X154059523Y-138524809D01*
X154059523Y-138524809D02*
X153964285Y-138524809D01*
X153964285Y-138524809D02*
X153916666Y-138501000D01*
X153916666Y-138501000D02*
X153892857Y-138477190D01*
X153892857Y-138477190D02*
X153869047Y-138429571D01*
X153869047Y-138429571D02*
X153869047Y-138334333D01*
X153869047Y-138334333D02*
X153892857Y-138286714D01*
X153892857Y-138286714D02*
X153916666Y-138262904D01*
X153916666Y-138262904D02*
X153964285Y-138239095D01*
X159596428Y-138367190D02*
X159620237Y-138391000D01*
X159620237Y-138391000D02*
X159691666Y-138414809D01*
X159691666Y-138414809D02*
X159739285Y-138414809D01*
X159739285Y-138414809D02*
X159810713Y-138391000D01*
X159810713Y-138391000D02*
X159858332Y-138343380D01*
X159858332Y-138343380D02*
X159882142Y-138295761D01*
X159882142Y-138295761D02*
X159905951Y-138200523D01*
X159905951Y-138200523D02*
X159905951Y-138129095D01*
X159905951Y-138129095D02*
X159882142Y-138033857D01*
X159882142Y-138033857D02*
X159858332Y-137986238D01*
X159858332Y-137986238D02*
X159810713Y-137938619D01*
X159810713Y-137938619D02*
X159739285Y-137914809D01*
X159739285Y-137914809D02*
X159691666Y-137914809D01*
X159691666Y-137914809D02*
X159620237Y-137938619D01*
X159620237Y-137938619D02*
X159596428Y-137962428D01*
X159405951Y-137962428D02*
X159382142Y-137938619D01*
X159382142Y-137938619D02*
X159334523Y-137914809D01*
X159334523Y-137914809D02*
X159215475Y-137914809D01*
X159215475Y-137914809D02*
X159167856Y-137938619D01*
X159167856Y-137938619D02*
X159144047Y-137962428D01*
X159144047Y-137962428D02*
X159120237Y-138010047D01*
X159120237Y-138010047D02*
X159120237Y-138057666D01*
X159120237Y-138057666D02*
X159144047Y-138129095D01*
X159144047Y-138129095D02*
X159429761Y-138414809D01*
X159429761Y-138414809D02*
X159120237Y-138414809D01*
X158953571Y-137914809D02*
X158620238Y-137914809D01*
X158620238Y-137914809D02*
X158834523Y-138414809D01*
X150620833Y-134174809D02*
X150858928Y-134174809D01*
X150858928Y-134174809D02*
X150858928Y-133674809D01*
X150477975Y-133722428D02*
X150454166Y-133698619D01*
X150454166Y-133698619D02*
X150406547Y-133674809D01*
X150406547Y-133674809D02*
X150287499Y-133674809D01*
X150287499Y-133674809D02*
X150239880Y-133698619D01*
X150239880Y-133698619D02*
X150216071Y-133722428D01*
X150216071Y-133722428D02*
X150192261Y-133770047D01*
X150192261Y-133770047D02*
X150192261Y-133817666D01*
X150192261Y-133817666D02*
X150216071Y-133889095D01*
X150216071Y-133889095D02*
X150501785Y-134174809D01*
X150501785Y-134174809D02*
X150192261Y-134174809D01*
D13*
%TO.C,J5*%
X161161906Y-119700000D02*
G75*
G02*
X160399906Y-119700000I-381000J0D01*
G01*
X160399906Y-119700000D02*
G75*
G02*
X161161906Y-119700000I381000J0D01*
G01*
D14*
%TO.C,U6*%
X150890000Y-128087500D02*
X150890000Y-127287500D01*
X150890000Y-128087500D02*
X150890000Y-128887500D01*
X154010000Y-128087500D02*
X154010000Y-127287500D01*
X154010000Y-128087500D02*
X154010000Y-128887500D01*
X150940000Y-126787500D02*
X150610000Y-127027500D01*
X150610000Y-126547500D01*
X150940000Y-126787500D01*
G36*
X150940000Y-126787500D02*
G01*
X150610000Y-127027500D01*
X150610000Y-126547500D01*
X150940000Y-126787500D01*
G37*
%TO.C,J4*%
X158370000Y-127195000D02*
X158370000Y-129845000D01*
X161130000Y-124545000D02*
X159750000Y-124545000D01*
X161130000Y-125925000D02*
X161130000Y-124545000D01*
X161130000Y-127195000D02*
X158370000Y-127195000D01*
X161130000Y-127195000D02*
X161130000Y-129845000D01*
X161130000Y-129845000D02*
X158370000Y-129845000D01*
%TO.C,C29*%
X159415580Y-132450000D02*
X159134420Y-132450000D01*
X159415580Y-133470000D02*
X159134420Y-133470000D01*
%TO.C,R6*%
X150987258Y-132427500D02*
X150512742Y-132427500D01*
X150987258Y-133472500D02*
X150512742Y-133472500D01*
%TO.C,C7*%
X147740000Y-103059420D02*
X147740000Y-103340580D01*
X148760000Y-103059420D02*
X148760000Y-103340580D01*
%TO.C,C35*%
X148759420Y-124840000D02*
X149040580Y-124840000D01*
X148759420Y-125860000D02*
X149040580Y-125860000D01*
%TO.C,J7*%
X147255000Y-142890000D02*
X147589970Y-142890000D01*
X147255000Y-143765000D02*
X147255000Y-142890000D01*
X147255000Y-143765000D02*
X147314435Y-143765000D01*
X147255000Y-144500000D02*
X147255000Y-145235000D01*
X147255000Y-145235000D02*
X148000000Y-145235000D01*
X148410030Y-142890000D02*
X148745000Y-142890000D01*
X148685565Y-143765000D02*
X148745000Y-143765000D01*
X148745000Y-143765000D02*
X148745000Y-142890000D01*
%TO.C,U1*%
X149140000Y-103840000D02*
X149140000Y-104790000D01*
X149140000Y-114060000D02*
X149140000Y-113110000D01*
X150090000Y-103840000D02*
X149140000Y-103840000D01*
X150090000Y-114060000D02*
X149140000Y-114060000D01*
X158410000Y-103840000D02*
X159360000Y-103840000D01*
X158410000Y-114060000D02*
X159360000Y-114060000D01*
X159360000Y-103840000D02*
X159360000Y-104790000D01*
X159360000Y-114060000D02*
X159360000Y-113110000D01*
X159975000Y-104790000D02*
X159635000Y-104320000D01*
X160315000Y-104320000D01*
X159975000Y-104790000D01*
G36*
X159975000Y-104790000D02*
G01*
X159635000Y-104320000D01*
X160315000Y-104320000D01*
X159975000Y-104790000D01*
G37*
%TO.C,C28*%
X159415580Y-130690000D02*
X159134420Y-130690000D01*
X159415580Y-131710000D02*
X159134420Y-131710000D01*
%TO.C,C12*%
X148190000Y-68259420D02*
X148190000Y-68540580D01*
X149210000Y-68259420D02*
X149210000Y-68540580D01*
%TO.C,C24*%
X147740000Y-114815580D02*
X147740000Y-114534420D01*
X148760000Y-114815580D02*
X148760000Y-114534420D01*
%TO.C,U2*%
X152140000Y-92140000D02*
X152140000Y-92615000D01*
X152140000Y-96360000D02*
X152140000Y-95885000D01*
X152615000Y-92140000D02*
X152140000Y-92140000D01*
X152615000Y-96360000D02*
X152140000Y-96360000D01*
X155885000Y-92140000D02*
X156060000Y-92140000D01*
X155885000Y-96360000D02*
X156360000Y-96360000D01*
X156360000Y-92615000D02*
X156360000Y-92380000D01*
X156360000Y-96360000D02*
X156360000Y-95885000D01*
X156360000Y-92140000D02*
X156120000Y-91810000D01*
X156600000Y-91810000D01*
X156360000Y-92140000D01*
G36*
X156360000Y-92140000D02*
G01*
X156120000Y-91810000D01*
X156600000Y-91810000D01*
X156360000Y-92140000D01*
G37*
%TO.C,R12*%
X148662742Y-119977500D02*
X149137258Y-119977500D01*
X148662742Y-121022500D02*
X149137258Y-121022500D01*
%TO.C,U4*%
X157410000Y-134140000D02*
X160410000Y-134140000D01*
X157410000Y-137360000D02*
X160410000Y-137360000D01*
X157070000Y-137590000D02*
X156590000Y-137110000D01*
X157070000Y-137110000D01*
X157070000Y-137590000D01*
G36*
X157070000Y-137590000D02*
G01*
X156590000Y-137110000D01*
X157070000Y-137110000D01*
X157070000Y-137590000D01*
G37*
%TO.C,U5*%
X154300000Y-132690000D02*
X153500000Y-132690000D01*
X154300000Y-132690000D02*
X155100000Y-132690000D01*
X154300000Y-135810000D02*
X153500000Y-135810000D01*
X154300000Y-135810000D02*
X155100000Y-135810000D01*
X153240000Y-136090000D02*
X152760000Y-136090000D01*
X153000000Y-135760000D01*
X153240000Y-136090000D01*
G36*
X153240000Y-136090000D02*
G01*
X152760000Y-136090000D01*
X153000000Y-135760000D01*
X153240000Y-136090000D01*
G37*
%TO.C,R3*%
X156737258Y-125977500D02*
X156262742Y-125977500D01*
X156737258Y-127022500D02*
X156262742Y-127022500D01*
%TO.C,R8*%
X150512742Y-130477500D02*
X150987258Y-130477500D01*
X150512742Y-131522500D02*
X150987258Y-131522500D01*
%TO.C,J2*%
X151150000Y-60350000D02*
X151150000Y-63550000D01*
X151150000Y-66150000D02*
X151150000Y-75050000D01*
X151150000Y-75050000D02*
X151900000Y-75050000D01*
X151650000Y-57850000D02*
X151650000Y-60350000D01*
X151650000Y-60350000D02*
X151150000Y-60350000D01*
X155100000Y-75050000D02*
X157350000Y-75050000D01*
X156850000Y-57850000D02*
X151650000Y-57850000D01*
X156850000Y-60350000D02*
X156850000Y-57850000D01*
X157350000Y-60350000D02*
X156850000Y-60350000D01*
X157350000Y-61550000D02*
X157350000Y-60350000D01*
X157350000Y-61550000D02*
X159350000Y-61550000D01*
X157350000Y-64150000D02*
X159350000Y-64150000D01*
X157350000Y-70650000D02*
X157350000Y-64150000D01*
X157350000Y-75050000D02*
X157350000Y-73850000D01*
%TO.C,C14*%
X151740000Y-90165580D02*
X151740000Y-89884420D01*
X152760000Y-90165580D02*
X152760000Y-89884420D01*
%TO.C,R9*%
X149477500Y-128262742D02*
X149477500Y-128737258D01*
X150522500Y-128262742D02*
X150522500Y-128737258D01*
%TO.C,R11*%
X151762742Y-119977500D02*
X152237258Y-119977500D01*
X151762742Y-121022500D02*
X152237258Y-121022500D01*
%TO.C,J6*%
X151580000Y-82330000D02*
X151580000Y-79570000D01*
X154230000Y-79570000D02*
X151580000Y-79570000D01*
X154230000Y-82330000D02*
X151580000Y-82330000D01*
X154230000Y-82330000D02*
X154230000Y-79570000D01*
X155500000Y-82330000D02*
X156880000Y-82330000D01*
X156880000Y-82330000D02*
X156880000Y-80950000D01*
%TO.C,L3*%
X153690000Y-123362779D02*
X153690000Y-123037221D01*
X154710000Y-123362779D02*
X154710000Y-123037221D01*
%TO.C,C6*%
X150359420Y-117990000D02*
X150640580Y-117990000D01*
X150359420Y-119010000D02*
X150640580Y-119010000D01*
%TO.C,C26*%
X159415580Y-139940000D02*
X159134420Y-139940000D01*
X159415580Y-140960000D02*
X159134420Y-140960000D01*
%TO.C,C31*%
X150678080Y-136490000D02*
X150396920Y-136490000D01*
X150678080Y-137510000D02*
X150396920Y-137510000D01*
D15*
%TO.C,U7*%
X150999999Y-121550001D02*
X153000001Y-121550001D01*
X150999999Y-124849999D02*
X153000001Y-124849999D01*
D16*
G36*
X151400001Y-125099999D02*
G01*
X150999999Y-125099999D01*
X150999999Y-124849999D01*
X151400001Y-124849999D01*
X151400001Y-125099999D01*
G37*
D14*
%TO.C,SW8*%
X147125000Y-88400000D02*
X147125000Y-87475000D01*
X147125000Y-92175000D02*
X147125000Y-91250000D01*
X149250000Y-87375000D02*
X148700000Y-87375000D01*
X149250000Y-92275000D02*
X148700000Y-92275000D01*
X150825000Y-92175000D02*
X150825000Y-87475000D01*
%TO.C,R10*%
X149137258Y-123277500D02*
X148662742Y-123277500D01*
X149137258Y-124322500D02*
X148662742Y-124322500D01*
%TO.C,C4*%
X147740000Y-117890580D02*
X147740000Y-117609420D01*
X148760000Y-117890580D02*
X148760000Y-117609420D01*
%TO.C,C18*%
X155790000Y-89609420D02*
X155790000Y-89890580D01*
X156810000Y-89609420D02*
X156810000Y-89890580D01*
%TO.C,C33*%
X154490000Y-130559420D02*
X154490000Y-130840580D01*
X155510000Y-130559420D02*
X155510000Y-130840580D01*
%TO.C,C34*%
X156640580Y-127690000D02*
X156359420Y-127690000D01*
X156640580Y-128710000D02*
X156359420Y-128710000D01*
%TO.C,C15*%
X151490000Y-99140580D02*
X151490000Y-98859420D01*
X152510000Y-99140580D02*
X152510000Y-98859420D01*
%TO.C,C19*%
X159740000Y-145859420D02*
X159740000Y-146140580D01*
X160760000Y-145859420D02*
X160760000Y-146140580D01*
D17*
%TO.C,J3*%
X149525600Y-142077900D02*
X149525600Y-143633464D01*
X149525600Y-145096336D02*
X149525600Y-146821811D01*
X149525600Y-148807987D02*
X149525600Y-152822100D01*
X149525600Y-152822100D02*
X158974400Y-152822100D01*
X151015549Y-142077900D02*
X149525600Y-142077900D01*
X158974400Y-142077900D02*
X157484451Y-142077900D01*
X158974400Y-143633464D02*
X158974400Y-142077900D01*
X158974400Y-146821811D02*
X158974400Y-145096336D01*
X158974400Y-152822100D02*
X158974400Y-148807987D01*
D14*
%TO.C,SW4*%
X157650000Y-95350000D02*
X157650000Y-100050000D01*
X159225000Y-95250000D02*
X159775000Y-95250000D01*
X159225000Y-100150000D02*
X159775000Y-100150000D01*
X161350000Y-95350000D02*
X161350000Y-96275000D01*
X161350000Y-99125000D02*
X161350000Y-100050000D01*
%TO.C,C30*%
X155365580Y-136490000D02*
X155084420Y-136490000D01*
X155365580Y-137510000D02*
X155084420Y-137510000D01*
%TO.C,TP2*%
X160950000Y-142750000D02*
G75*
G02*
X159550000Y-142750000I-700000J0D01*
G01*
X159550000Y-142750000D02*
G75*
G02*
X160950000Y-142750000I700000J0D01*
G01*
%TO.C,C3*%
X152890580Y-100740000D02*
X152609420Y-100740000D01*
X152890580Y-101760000D02*
X152609420Y-101760000D01*
%TO.C,TP1*%
X157450000Y-131700000D02*
G75*
G02*
X156050000Y-131700000I-700000J0D01*
G01*
X156050000Y-131700000D02*
G75*
G02*
X157450000Y-131700000I700000J0D01*
G01*
%TO.C,C23*%
X155609420Y-98790000D02*
X155890580Y-98790000D01*
X155609420Y-99810000D02*
X155890580Y-99810000D01*
%TO.C,R7*%
X147727500Y-135537742D02*
X147727500Y-136012258D01*
X148772500Y-135537742D02*
X148772500Y-136012258D01*
%TO.C,R4*%
X156737258Y-124477500D02*
X156262742Y-124477500D01*
X156737258Y-125522500D02*
X156262742Y-125522500D01*
%TO.C,C17*%
X153740000Y-89609420D02*
X153740000Y-89890580D01*
X154760000Y-89609420D02*
X154760000Y-89890580D01*
%TO.C,D1*%
X147265000Y-126740000D02*
X148735000Y-126740000D01*
X147265000Y-129025000D02*
X147265000Y-126740000D01*
X148735000Y-126740000D02*
X148735000Y-129025000D01*
%TO.C,TP3*%
X148950000Y-132950000D02*
G75*
G02*
X147550000Y-132950000I-700000J0D01*
G01*
X147550000Y-132950000D02*
G75*
G02*
X148950000Y-132950000I700000J0D01*
G01*
%TO.C,J8*%
X147720000Y-72120000D02*
X150480000Y-72120000D01*
X147720000Y-79850000D02*
X147720000Y-72120000D01*
X147720000Y-79850000D02*
X150480000Y-79850000D01*
X147720000Y-81120000D02*
X147720000Y-82500000D01*
X147720000Y-82500000D02*
X149100000Y-82500000D01*
X150480000Y-79850000D02*
X150480000Y-72120000D01*
%TO.C,C13*%
X159990000Y-73659420D02*
X159990000Y-73940580D01*
X161010000Y-73659420D02*
X161010000Y-73940580D01*
%TO.C,C16*%
X152990000Y-99140580D02*
X152990000Y-98859420D01*
X154010000Y-99140580D02*
X154010000Y-98859420D01*
%TO.C,SW6*%
X147150000Y-96275000D02*
X147150000Y-95350000D01*
X147150000Y-100050000D02*
X147150000Y-99125000D01*
X149275000Y-95250000D02*
X148725000Y-95250000D01*
X149275000Y-100150000D02*
X148725000Y-100150000D01*
X150850000Y-100050000D02*
X150850000Y-95350000D01*
%TO.C,L1*%
X153290000Y-117862779D02*
X153290000Y-117537221D01*
X154310000Y-117862779D02*
X154310000Y-117537221D01*
%TO.C,C21*%
X155609420Y-100290000D02*
X155890580Y-100290000D01*
X155609420Y-101310000D02*
X155890580Y-101310000D01*
%TO.C,SW3*%
X157650000Y-87350000D02*
X157650000Y-92050000D01*
X159225000Y-87250000D02*
X159775000Y-87250000D01*
X159225000Y-92150000D02*
X159775000Y-92150000D01*
X161350000Y-87350000D02*
X161350000Y-88275000D01*
X161350000Y-91125000D02*
X161350000Y-92050000D01*
%TO.C,C25*%
X159790000Y-103059420D02*
X159790000Y-103340580D01*
X160810000Y-103059420D02*
X160810000Y-103340580D01*
%TO.C,SW5*%
X157650000Y-76850000D02*
X157650000Y-81550000D01*
X159225000Y-76750000D02*
X159775000Y-76750000D01*
X159225000Y-81650000D02*
X159775000Y-81650000D01*
X161350000Y-76850000D02*
X161350000Y-77775000D01*
X161350000Y-80625000D02*
X161350000Y-81550000D01*
%TO.C,C36*%
X149040580Y-121590000D02*
X148759420Y-121590000D01*
X149040580Y-122610000D02*
X148759420Y-122610000D01*
D17*
%TO.C,CR1*%
X148611950Y-138049000D02*
X150618550Y-138049000D01*
X150618550Y-141351000D02*
X148611950Y-141351000D01*
D14*
%TO.C,C5*%
X150359420Y-116390000D02*
X150640580Y-116390000D01*
X150359420Y-117410000D02*
X150640580Y-117410000D01*
%TO.C,C22*%
X158690000Y-116059420D02*
X158690000Y-116340580D01*
X159710000Y-116059420D02*
X159710000Y-116340580D01*
%TO.C,R5*%
X152227500Y-138812258D02*
X152227500Y-138337742D01*
X153272500Y-138812258D02*
X153272500Y-138337742D01*
%TO.C,R18*%
X153977500Y-139987258D02*
X153977500Y-139512742D01*
X155022500Y-139987258D02*
X155022500Y-139512742D01*
%TO.C,C27*%
X159415580Y-138440000D02*
X159134420Y-138440000D01*
X159415580Y-139460000D02*
X159134420Y-139460000D01*
%TO.C,L2*%
X150700279Y-134190000D02*
X150374721Y-134190000D01*
X150700279Y-135210000D02*
X150374721Y-135210000D01*
%TD*%
M02*
